<svg width="1134" height="887" viewBox="0 0 1134 887" fill="none" xmlns="http://www.w3.org/2000/svg">
<line x1="785.5" y1="887" x2="785.5" y2="-8.02594e-08" stroke="#504638" stroke-width="5"/>
<line x1="392.5" y1="887" x2="392.5" y2="-8.02594e-08" stroke="#504638" stroke-width="5"/>
<line x1="194.5" y1="887" x2="194.5" y2="-8.02594e-08" stroke="#504638" stroke-width="5"/>
<line x1="983.5" y1="887" x2="983.5" y2="-8.02594e-08" stroke="#504638" stroke-width="5"/>
<line x1="589.5" y1="887" x2="589.5" y2="-8.02594e-08" stroke="#504638" stroke-width="5"/>
<line x1="95.5" y1="887" x2="95.5001" y2="-8.02594e-08" stroke="#504638" stroke-width="5"/>
<line x1="885.5" y1="887" x2="885.5" y2="-8.02594e-08" stroke="#504638" stroke-width="5"/>
<line x1="489.5" y1="887" x2="489.5" y2="-8.02594e-08" stroke="#504638" stroke-width="5"/>
<line x1="293.5" y1="887" x2="293.5" y2="-8.02594e-08" stroke="#504638" stroke-width="5"/>
<line x1="1081.5" y1="887" x2="1081.5" y2="-8.04085e-08" stroke="#504638" stroke-width="5"/>
<line x1="687.5" y1="887" x2="687.5" y2="-8.02594e-08" stroke="#504638" stroke-width="5"/>
<line x1="46.5" y1="887" x2="46.5001" y2="-8.02594e-08" stroke="#504638" stroke-width="5"/>
<line x1="835.5" y1="887" x2="835.5" y2="-8.02594e-08" stroke="#504638" stroke-width="5"/>
<line x1="441.5" y1="887" x2="441.5" y2="-8.02594e-08" stroke="#504638" stroke-width="5"/>
<line x1="243.5" y1="887" x2="243.5" y2="-8.02594e-08" stroke="#504638" stroke-width="5"/>
<line x1="1032.5" y1="887" x2="1032.5" y2="-8.02594e-08" stroke="#504638" stroke-width="5"/>
<line x1="638.5" y1="887" x2="638.5" y2="-8.02594e-08" stroke="#504638" stroke-width="5"/>
<line x1="145.5" y1="887" x2="145.5" y2="-8.02594e-08" stroke="#504638" stroke-width="5"/>
<line x1="934.5" y1="887" x2="934.5" y2="-8.02594e-08" stroke="#504638" stroke-width="5"/>
<line x1="539.5" y1="887" x2="539.5" y2="-8.02594e-08" stroke="#504638" stroke-width="5"/>
<line x1="342.5" y1="887" x2="342.5" y2="-8.02594e-08" stroke="#504638" stroke-width="5"/>
<line x1="736.5" y1="887" x2="736.5" y2="-8.02594e-08" stroke="#504638" stroke-width="5"/>
<line x1="2.11942e-07" y1="785.5" x2="1134" y2="785.5" stroke="#504638" stroke-width="5"/>
<line x1="2.11942e-07" y1="392.5" x2="1134" y2="392.5" stroke="#504638" stroke-width="5"/>
<line x1="2.11942e-07" y1="194.5" x2="1134" y2="194.5" stroke="#504638" stroke-width="5"/>
<line x1="2.11942e-07" y1="588.5" x2="1134" y2="588.5" stroke="#504638" stroke-width="5"/>
<line x1="2.11942e-07" y1="95.5" x2="1134" y2="95.5001" stroke="#504638" stroke-width="5"/>
<line x1="2.11942e-07" y1="489.5" x2="1134" y2="489.5" stroke="#504638" stroke-width="5"/>
<line x1="2.11942e-07" y1="293.5" x2="1134" y2="293.5" stroke="#504638" stroke-width="5"/>
<line x1="2.11942e-07" y1="686.5" x2="1134" y2="686.5" stroke="#504638" stroke-width="5"/>
<line x1="2.11942e-07" y1="46.5" x2="1134" y2="46.5001" stroke="#504638" stroke-width="5"/>
<line x1="2.11942e-07" y1="834.5" x2="1134" y2="834.5" stroke="#504638" stroke-width="5"/>
<line x1="2.11942e-07" y1="441.5" x2="1134" y2="441.5" stroke="#504638" stroke-width="5"/>
<line x1="2.11942e-07" y1="243.5" x2="1134" y2="243.5" stroke="#504638" stroke-width="5"/>
<line x1="2.11942e-07" y1="638.5" x2="1134" y2="638.5" stroke="#504638" stroke-width="5"/>
<line x1="2.11942e-07" y1="145.5" x2="1134" y2="145.5" stroke="#504638" stroke-width="5"/>
<line x1="2.11942e-07" y1="539.5" x2="1134" y2="539.5" stroke="#504638" stroke-width="5"/>
<line x1="2.11942e-07" y1="342.5" x2="1134" y2="342.5" stroke="#504638" stroke-width="5"/>
<line x1="2.11942e-07" y1="735.5" x2="1134" y2="735.5" stroke="#504638" stroke-width="5"/>
</svg>
