<svg width="25" height="26" viewBox="0 0 25 26" fill="none" xmlns="http://www.w3.org/2000/svg">
<g clip-path="url(#clip0_66_562)">
<path d="M8.3497 20.0033C8.3497 20.104 8.23843 20.1845 8.09814 20.1845C7.9385 20.1996 7.82724 20.1191 7.82724 20.0033C7.82724 19.9026 7.9385 19.8221 8.07879 19.8221C8.22392 19.807 8.3497 19.8875 8.3497 20.0033ZM6.84522 19.7768C6.81136 19.8775 6.90811 19.9932 7.05324 20.0234C7.17901 20.0738 7.32414 20.0234 7.35316 19.9228C7.38219 19.8221 7.29027 19.7063 7.14515 19.661C7.01937 19.6258 6.87908 19.6761 6.84522 19.7768ZM8.98341 19.6912C8.84312 19.7265 8.74637 19.8221 8.76089 19.9379C8.7754 20.0385 8.90117 20.104 9.0463 20.0687C9.18659 20.0335 9.28334 19.9379 9.26883 19.8372C9.25431 19.7416 9.1237 19.6761 8.98341 19.6912ZM12.1665 0.402832C5.45685 0.402832 0.324219 5.70311 0.324219 12.6846C0.324219 18.2667 3.70082 23.0435 8.52385 24.7247C9.14305 24.8405 9.36074 24.4428 9.36074 24.1157C9.36074 23.8036 9.34623 22.0821 9.34623 21.0251C9.34623 21.0251 5.95995 21.7801 5.24883 19.5251C5.24883 19.5251 4.69735 18.0604 3.904 17.6828C3.904 17.6828 2.7962 16.8926 3.9814 16.9077C3.9814 16.9077 5.18595 17.0084 5.84869 18.2063C6.90811 20.1493 8.68349 19.5905 9.37525 19.2583C9.48652 18.453 9.80096 17.8943 10.1493 17.562C7.44508 17.25 4.7167 16.8423 4.7167 12C4.7167 10.6158 5.08436 9.92119 5.85836 9.03529C5.73259 8.70811 5.3214 7.35913 5.98414 5.61754C6.99518 5.29036 9.32204 6.97659 9.32204 6.97659C10.2895 6.69471 11.3296 6.54874 12.36 6.54874C13.3904 6.54874 14.4305 6.69471 15.398 6.97659C15.398 6.97659 17.7248 5.28533 18.7359 5.61754C19.3986 7.36417 18.9874 8.70811 18.8617 9.03529C19.6357 9.92622 20.1098 10.6208 20.1098 12C20.1098 16.8574 17.2604 17.2449 14.5563 17.562C15.0013 17.9597 15.3786 18.7147 15.3786 19.8976C15.3786 21.5939 15.3641 23.6929 15.3641 24.1056C15.3641 24.4328 15.5867 24.8304 16.201 24.7147C21.0386 23.0435 24.3184 18.2667 24.3184 12.6846C24.3184 5.70311 18.8762 0.402832 12.1665 0.402832ZM5.02631 17.7634C4.96342 17.8137 4.97793 17.9295 5.06017 18.0251C5.13757 18.1057 5.24883 18.1409 5.31172 18.0755C5.37461 18.0251 5.3601 17.9094 5.27786 17.8137C5.20046 17.7332 5.08919 17.698 5.02631 17.7634ZM4.50385 17.3557C4.46999 17.4211 4.51836 17.5016 4.61512 17.552C4.69252 17.6023 4.78927 17.5872 4.82313 17.5167C4.85699 17.4513 4.80862 17.3708 4.71187 17.3204C4.61512 17.2902 4.53771 17.3053 4.50385 17.3557ZM6.07121 19.1476C5.99381 19.213 6.02284 19.364 6.1341 19.4597C6.24537 19.5754 6.38565 19.5905 6.44854 19.51C6.51143 19.4446 6.48241 19.2936 6.38565 19.1979C6.27923 19.0822 6.1341 19.0671 6.07121 19.1476ZM5.51974 18.4077C5.44233 18.458 5.44233 18.5889 5.51974 18.7047C5.59714 18.8204 5.72775 18.8708 5.79064 18.8204C5.86804 18.755 5.86804 18.6241 5.79064 18.5083C5.72291 18.3926 5.59714 18.3422 5.51974 18.4077Z" fill="#D9D9D9"/>
</g>
<defs>
<clipPath id="clip0_66_562">
<rect width="23.9942" height="25.7715" fill="white" transform="translate(0.324219)"/>
</clipPath>
</defs>
</svg>
