<svg width="570" height="494" viewBox="0 0 570 494" fill="none" xmlns="http://www.w3.org/2000/svg">
<rect x="326" y="243" width="244" height="151" fill="#37542C"/>
<rect x="127" y="180" width="201" height="242" fill="#37542C"/>
<mask id="path-3-inside-1_82_505" fill="white">
<path d="M329 258H558V405H143V135H329V258Z"/>
</mask>
<path d="M329 258H558V405H143V135H329V258Z" fill="#D2A416"/>
<path d="M329 258H328V259H329V258ZM558 258H559V257H558V258ZM558 405V406H559V405H558ZM143 405H142V406H143V405ZM143 135V134H142V135H143ZM329 135H330V134H329V135ZM329 258V259H558V258V257H329V258ZM558 258H557V405H558H559V258H558ZM558 405V404H143V405V406H558V405ZM143 405H144V135H143H142V405H143ZM143 135V136H329V135V134H143V135ZM329 135H328V258H329H330V135H329Z" fill="#130F09" mask="url(#path-3-inside-1_82_505)"/>
<g clip-path="url(#clip0_82_505)">
<path d="M340.348 340.458H339.916C339.628 341.162 339.276 341.834 338.86 342.474C338.444 343.114 337.932 343.69 337.324 344.202C336.716 344.682 335.996 345.066 335.164 345.354C334.364 345.642 333.452 345.786 332.428 345.786C330.796 345.786 329.34 345.402 328.06 344.634C326.812 343.866 325.756 342.746 324.892 341.274C324.028 339.802 323.372 338.01 322.924 335.898C322.508 333.786 322.3 331.402 322.3 328.746C322.3 323.05 323.34 318.698 325.42 315.69C327.5 312.65 330.716 311.13 335.068 311.13C336.796 311.13 338.316 311.37 339.628 311.85C340.94 312.298 342.06 312.954 342.988 313.818C343.948 314.65 344.732 315.658 345.34 316.842C345.948 318.026 346.428 319.338 346.78 320.778L340.06 322.41C339.868 321.706 339.644 321.034 339.388 320.394C339.164 319.722 338.86 319.13 338.476 318.618C338.092 318.106 337.612 317.706 337.036 317.418C336.46 317.098 335.756 316.938 334.924 316.938C333.1 316.938 331.804 317.69 331.036 319.194C330.3 320.698 329.932 322.81 329.932 325.53V331.002C329.932 333.722 330.332 335.898 331.132 337.53C331.964 339.162 333.42 339.978 335.5 339.978C337.132 339.978 338.348 339.498 339.148 338.538C339.948 337.578 340.348 336.346 340.348 334.842V332.394H334.636V327.306H346.78V345.21H340.348V340.458ZM373.161 345.21C371.657 345.21 370.585 344.826 369.945 344.058C369.305 343.29 368.905 342.33 368.745 341.178H368.505C367.961 342.618 367.081 343.754 365.865 344.586C364.681 345.386 363.081 345.786 361.065 345.786C358.473 345.786 356.409 345.114 354.873 343.77C353.337 342.426 352.569 340.586 352.569 338.25C352.569 335.946 353.401 334.17 355.065 332.922C356.761 331.674 359.481 331.05 363.225 331.05H368.505V328.602C368.505 326.778 367.993 325.418 366.969 324.522C365.945 323.594 364.489 323.13 362.601 323.13C360.937 323.13 359.577 323.466 358.521 324.138C357.465 324.778 356.617 325.658 355.977 326.778L353.385 324.858C353.705 324.218 354.137 323.594 354.681 322.986C355.225 322.378 355.897 321.85 356.697 321.402C357.497 320.922 358.409 320.554 359.433 320.298C360.457 320.01 361.593 319.866 362.841 319.866C365.753 319.866 368.057 320.602 369.753 322.074C371.481 323.546 372.345 325.594 372.345 328.218V341.85H375.801V345.21H373.161ZM361.737 342.57C362.729 342.57 363.625 342.458 364.425 342.234C365.257 341.978 365.977 341.658 366.585 341.274C367.193 340.858 367.657 340.378 367.977 339.834C368.329 339.258 368.505 338.65 368.505 338.01V333.93H363.225C360.921 333.93 359.241 334.25 358.185 334.89C357.129 335.53 356.601 336.458 356.601 337.674V338.682C356.601 339.962 357.049 340.938 357.945 341.61C358.873 342.25 360.137 342.57 361.737 342.57ZM380.775 345.21V320.442H384.327V323.322H384.519C384.903 322.362 385.447 321.546 386.151 320.874C386.855 320.202 387.895 319.866 389.271 319.866C390.711 319.866 391.783 320.234 392.487 320.97C393.191 321.674 393.623 322.602 393.783 323.754H393.927C394.375 322.634 395.015 321.706 395.847 320.97C396.679 320.234 397.831 319.866 399.303 319.866C401.319 319.866 402.663 320.57 403.335 321.978C404.039 323.386 404.391 325.402 404.391 328.026V345.21H400.839V328.65C400.839 326.538 400.615 325.082 400.167 324.282C399.751 323.45 398.967 323.034 397.815 323.034C396.791 323.034 395.959 323.37 395.319 324.042C394.679 324.682 394.359 325.674 394.359 327.018V345.21H390.807V328.65C390.807 326.538 390.583 325.082 390.135 324.282C389.719 323.45 388.951 323.034 387.831 323.034C386.807 323.034 385.959 323.37 385.287 324.042C384.647 324.682 384.327 325.674 384.327 327.018V345.21H380.775ZM421.796 345.786C420.004 345.786 418.388 345.482 416.948 344.874C415.54 344.266 414.324 343.402 413.3 342.282C412.308 341.13 411.54 339.77 410.996 338.202C410.452 336.602 410.18 334.826 410.18 332.874C410.18 330.89 410.452 329.098 410.996 327.498C411.572 325.898 412.356 324.538 413.348 323.418C414.34 322.266 415.524 321.386 416.9 320.778C418.308 320.17 419.86 319.866 421.556 319.866C423.22 319.866 424.724 320.17 426.068 320.778C427.444 321.386 428.612 322.234 429.572 323.322C430.532 324.378 431.268 325.642 431.78 327.114C432.292 328.586 432.548 330.202 432.548 331.962V333.786H414.212V334.938C414.212 336.026 414.388 337.034 414.74 337.962C415.092 338.89 415.588 339.69 416.228 340.362C416.9 341.034 417.7 341.562 418.628 341.946C419.588 342.298 420.644 342.474 421.796 342.474C423.46 342.474 424.9 342.09 426.116 341.322C427.332 340.554 428.26 339.498 428.9 338.154L431.732 340.074C430.996 341.738 429.764 343.114 428.036 344.202C426.34 345.258 424.26 345.786 421.796 345.786ZM421.556 323.034C420.5 323.034 419.524 323.226 418.628 323.61C417.732 323.994 416.948 324.522 416.276 325.194C415.636 325.866 415.124 326.666 414.74 327.594C414.388 328.49 414.212 329.482 414.212 330.57V330.906H428.42V330.378C428.42 329.29 428.244 328.298 427.892 327.402C427.572 326.506 427.108 325.738 426.5 325.098C425.924 324.426 425.204 323.914 424.34 323.562C423.508 323.21 422.58 323.034 421.556 323.034ZM450.433 345.786C447.841 345.786 445.601 345.354 443.713 344.49C441.857 343.594 440.273 342.41 438.961 340.938L441.553 338.682C442.737 339.93 444.033 340.89 445.441 341.562C446.849 342.234 448.545 342.57 450.529 342.57C452.449 342.57 454.017 342.234 455.233 341.562C456.481 340.858 457.105 339.77 457.105 338.298C457.105 337.658 456.977 337.13 456.721 336.714C456.497 336.266 456.177 335.914 455.761 335.658C455.345 335.402 454.881 335.21 454.369 335.082C453.857 334.922 453.313 334.794 452.737 334.698L448.849 334.122C447.985 333.994 447.041 333.818 446.017 333.594C445.025 333.37 444.113 333.018 443.281 332.538C442.449 332.026 441.745 331.354 441.169 330.522C440.625 329.69 440.353 328.602 440.353 327.258C440.353 326.01 440.593 324.938 441.073 324.042C441.585 323.114 442.289 322.346 443.185 321.738C444.081 321.098 445.137 320.634 446.353 320.346C447.569 320.026 448.897 319.866 450.337 319.866C452.577 319.866 454.513 320.218 456.145 320.922C457.809 321.626 459.233 322.602 460.417 323.85L457.921 326.202C457.633 325.85 457.265 325.498 456.817 325.146C456.401 324.762 455.873 324.426 455.233 324.138C454.625 323.818 453.905 323.562 453.073 323.37C452.241 323.178 451.281 323.082 450.193 323.082C448.241 323.082 446.737 323.418 445.681 324.09C444.657 324.762 444.145 325.738 444.145 327.018C444.145 327.658 444.257 328.202 444.481 328.65C444.737 329.066 445.073 329.402 445.489 329.658C445.905 329.914 446.369 330.122 446.881 330.282C447.425 330.41 447.969 330.522 448.513 330.618L452.401 331.194C453.297 331.322 454.241 331.498 455.233 331.722C456.225 331.946 457.137 332.314 457.969 332.826C458.801 333.306 459.489 333.962 460.033 334.794C460.609 335.626 460.897 336.714 460.897 338.058C460.897 340.522 459.937 342.426 458.017 343.77C456.129 345.114 453.601 345.786 450.433 345.786Z" fill="#130F09"/>
<path d="M341.5 386.76L339.388 378.696H330.22L328.156 386.76H320.86L329.932 353.256H340.108L349.18 386.76H341.5ZM335.02 360.216H334.636L331.372 372.888H338.284L335.02 360.216ZM353.097 383.496H360.345V365.256H353.097V361.992H364.185V368.232H364.425C364.937 366.28 365.897 364.76 367.305 363.672C368.745 362.552 370.569 361.992 372.777 361.992H376.233V365.832H371.577C369.369 365.832 367.577 366.472 366.201 367.752C364.857 369.032 364.185 370.712 364.185 372.792V383.496H373.785V386.76H353.097V383.496ZM393.447 387.336C391.655 387.336 390.055 387.032 388.647 386.424C387.271 385.784 386.103 384.904 385.143 383.784C384.183 382.664 383.447 381.304 382.935 379.704C382.455 378.104 382.215 376.328 382.215 374.376C382.215 372.424 382.471 370.648 382.983 369.048C383.495 367.448 384.231 366.088 385.191 364.968C386.151 363.816 387.319 362.936 388.695 362.328C390.071 361.72 391.639 361.416 393.399 361.416C395.799 361.416 397.751 361.944 399.255 363C400.759 364.056 401.863 365.432 402.567 367.128L399.495 368.76C399.047 367.48 398.295 366.488 397.239 365.784C396.215 365.08 394.935 364.728 393.399 364.728C392.279 364.728 391.271 364.92 390.375 365.304C389.511 365.656 388.775 366.168 388.167 366.84C387.559 367.512 387.095 368.312 386.775 369.24C386.487 370.168 386.343 371.176 386.343 372.264V376.488C386.343 377.576 386.487 378.584 386.775 379.512C387.095 380.44 387.559 381.24 388.167 381.912C388.775 382.584 389.527 383.112 390.423 383.496C391.319 383.848 392.343 384.024 393.495 384.024C395.159 384.024 396.535 383.64 397.623 382.872C398.711 382.104 399.575 381.048 400.215 379.704L402.951 381.576C402.215 383.24 401.063 384.616 399.495 385.704C397.959 386.792 395.943 387.336 393.447 387.336ZM411.668 351.24H415.508V366.024H415.7C415.956 365.416 416.276 364.84 416.66 364.296C417.044 363.72 417.508 363.224 418.052 362.808C418.628 362.392 419.3 362.056 420.068 361.8C420.836 361.544 421.732 361.416 422.756 361.416C425.348 361.416 427.428 362.248 428.996 363.912C430.564 365.544 431.348 367.864 431.348 370.872V386.76H427.508V371.544C427.508 369.272 427.012 367.592 426.02 366.504C425.028 365.384 423.572 364.824 421.652 364.824C420.884 364.824 420.132 364.92 419.396 365.112C418.66 365.304 418.004 365.592 417.428 365.976C416.852 366.36 416.388 366.856 416.036 367.464C415.684 368.072 415.508 368.776 415.508 369.576V386.76H411.668V351.24ZM451.681 356.52C450.561 356.52 449.777 356.296 449.329 355.848C448.881 355.368 448.657 354.776 448.657 354.072V353.304C448.657 352.6 448.881 352.024 449.329 351.576C449.777 351.096 450.561 350.856 451.681 350.856C452.801 350.856 453.585 351.096 454.033 351.576C454.481 352.024 454.705 352.6 454.705 353.304V354.072C454.705 354.776 454.481 355.368 454.033 355.848C453.585 356.296 452.801 356.52 451.681 356.52ZM440.833 383.496H449.761V365.256H440.833V361.992H453.601V383.496H461.953V386.76H440.833V383.496ZM476.478 386.76L467.598 361.992H471.486L475.038 372.36L478.878 383.544H479.07L482.91 372.36L486.462 361.992H490.254L481.374 386.76H476.478ZM508.14 387.336C506.348 387.336 504.732 387.032 503.292 386.424C501.884 385.816 500.668 384.952 499.644 383.832C498.652 382.68 497.884 381.32 497.34 379.752C496.796 378.152 496.524 376.376 496.524 374.424C496.524 372.44 496.796 370.648 497.34 369.048C497.916 367.448 498.7 366.088 499.692 364.968C500.684 363.816 501.868 362.936 503.244 362.328C504.652 361.72 506.204 361.416 507.9 361.416C509.564 361.416 511.068 361.72 512.412 362.328C513.788 362.936 514.956 363.784 515.916 364.872C516.876 365.928 517.612 367.192 518.124 368.664C518.636 370.136 518.892 371.752 518.892 373.512V375.336H500.556V376.488C500.556 377.576 500.732 378.584 501.084 379.512C501.436 380.44 501.932 381.24 502.572 381.912C503.244 382.584 504.044 383.112 504.972 383.496C505.932 383.848 506.988 384.024 508.14 384.024C509.804 384.024 511.244 383.64 512.46 382.872C513.676 382.104 514.604 381.048 515.244 379.704L518.076 381.624C517.34 383.288 516.108 384.664 514.38 385.752C512.684 386.808 510.604 387.336 508.14 387.336ZM507.9 364.584C506.844 364.584 505.868 364.776 504.972 365.16C504.076 365.544 503.292 366.072 502.62 366.744C501.98 367.416 501.468 368.216 501.084 369.144C500.732 370.04 500.556 371.032 500.556 372.12V372.456H514.764V371.928C514.764 370.84 514.588 369.848 514.236 368.952C513.916 368.056 513.452 367.288 512.844 366.648C512.268 365.976 511.548 365.464 510.684 365.112C509.852 364.76 508.924 364.584 507.9 364.584ZM536.489 387.192C535.177 387.192 534.249 386.92 533.705 386.376C533.193 385.832 532.937 385.144 532.937 384.312V383.448C532.937 382.616 533.193 381.928 533.705 381.384C534.249 380.84 535.177 380.568 536.489 380.568C537.801 380.568 538.713 380.84 539.225 381.384C539.769 381.928 540.041 382.616 540.041 383.448V384.312C540.041 385.144 539.769 385.832 539.225 386.376C538.713 386.92 537.801 387.192 536.489 387.192Z" fill="#130F09"/>
<path d="M330.46 270.156V291.372C330.46 292.428 330.492 293.404 330.556 294.3C330.652 295.164 330.844 295.9 331.132 296.508C331.452 297.116 331.916 297.596 332.524 297.948C333.132 298.268 333.964 298.428 335.02 298.428C336.076 298.428 336.908 298.268 337.516 297.948C338.124 297.596 338.572 297.116 338.86 296.508C339.18 295.9 339.372 295.164 339.436 294.3C339.532 293.404 339.58 292.428 339.58 291.372V270.156H346.78V290.412C346.78 292.716 346.62 294.732 346.3 296.46C346.012 298.188 345.436 299.628 344.572 300.78C343.708 301.932 342.508 302.796 340.972 303.372C339.436 303.948 337.452 304.236 335.02 304.236C332.588 304.236 330.604 303.948 329.068 303.372C327.532 302.796 326.332 301.932 325.468 300.78C324.604 299.628 324.012 298.188 323.692 296.46C323.404 294.732 323.26 292.716 323.26 290.412V270.156H330.46ZM372.489 303.66L369.657 294.108H357.897L355.065 303.66H350.889L361.161 270.156H366.489L376.761 303.66H372.489ZM363.993 274.428H363.561L358.857 290.604H368.697L363.993 274.428ZM382.023 300.396H390.663V271.404H382.023V268.14H394.503V300.396H403.143V303.66H382.023V300.396ZM411.524 268.14H415.364V282.924H415.556C417.156 279.852 419.7 278.316 423.188 278.316C426.228 278.316 428.596 279.452 430.292 281.724C432.02 283.996 432.884 287.18 432.884 291.276C432.884 295.372 432.02 298.556 430.292 300.828C428.596 303.1 426.228 304.236 423.188 304.236C419.7 304.236 417.156 302.7 415.556 299.628H415.364V303.66H411.524V268.14ZM421.7 300.828C423.94 300.828 425.668 300.156 426.884 298.812C428.132 297.436 428.756 295.628 428.756 293.388V289.164C428.756 286.924 428.132 285.132 426.884 283.788C425.668 282.412 423.94 281.724 421.7 281.724C420.836 281.724 420.02 281.836 419.252 282.06C418.484 282.284 417.812 282.62 417.236 283.068C416.66 283.484 416.196 284.012 415.844 284.652C415.524 285.26 415.364 285.98 415.364 286.812V295.74C415.364 296.572 415.524 297.308 415.844 297.948C416.196 298.556 416.66 299.084 417.236 299.532C417.812 299.948 418.484 300.268 419.252 300.492C420.02 300.716 420.836 300.828 421.7 300.828ZM450.577 304.236C448.785 304.236 447.169 303.932 445.729 303.324C444.321 302.716 443.105 301.852 442.081 300.732C441.089 299.58 440.321 298.22 439.777 296.652C439.233 295.052 438.961 293.276 438.961 291.324C438.961 289.34 439.233 287.548 439.777 285.948C440.353 284.348 441.137 282.988 442.129 281.868C443.121 280.716 444.305 279.836 445.681 279.228C447.089 278.62 448.641 278.316 450.337 278.316C452.001 278.316 453.505 278.62 454.849 279.228C456.225 279.836 457.393 280.684 458.353 281.772C459.313 282.828 460.049 284.092 460.561 285.564C461.073 287.036 461.329 288.652 461.329 290.412V292.236H442.993V293.388C442.993 294.476 443.169 295.484 443.521 296.412C443.873 297.34 444.369 298.14 445.009 298.812C445.681 299.484 446.481 300.012 447.409 300.396C448.369 300.748 449.425 300.924 450.577 300.924C452.241 300.924 453.681 300.54 454.897 299.772C456.113 299.004 457.041 297.948 457.681 296.604L460.513 298.524C459.777 300.188 458.545 301.564 456.817 302.652C455.121 303.708 453.041 304.236 450.577 304.236ZM450.337 281.484C449.281 281.484 448.305 281.676 447.409 282.06C446.513 282.444 445.729 282.972 445.057 283.644C444.417 284.316 443.905 285.116 443.521 286.044C443.169 286.94 442.993 287.932 442.993 289.02V289.356H457.201V288.828C457.201 287.74 457.025 286.748 456.673 285.852C456.353 284.956 455.889 284.188 455.281 283.548C454.705 282.876 453.985 282.364 453.121 282.012C452.289 281.66 451.361 281.484 450.337 281.484ZM468.222 300.396H475.47V282.156H468.222V278.892H479.31V285.132H479.55C480.062 283.18 481.022 281.66 482.43 280.572C483.87 279.452 485.694 278.892 487.902 278.892H491.358V282.732H486.702C484.494 282.732 482.702 283.372 481.326 284.652C479.982 285.932 479.31 287.612 479.31 289.692V300.396H488.91V303.66H468.222V300.396ZM508.908 303.66C507.02 303.66 505.628 303.132 504.732 302.076C503.868 301.02 503.436 299.66 503.436 297.996V282.156H495.18V278.892H501.324C502.156 278.892 502.732 278.732 503.052 278.412C503.404 278.06 503.58 277.468 503.58 276.636V270.156H507.276V278.892H518.556V282.156H507.276V300.396H518.556V303.66H508.908ZM545.849 303.66C544.345 303.66 543.273 303.276 542.633 302.508C541.993 301.74 541.593 300.78 541.433 299.628H541.193C540.649 301.068 539.769 302.204 538.553 303.036C537.369 303.836 535.769 304.236 533.753 304.236C531.161 304.236 529.097 303.564 527.561 302.22C526.025 300.876 525.257 299.036 525.257 296.7C525.257 294.396 526.089 292.62 527.753 291.372C529.449 290.124 532.169 289.5 535.913 289.5H541.193V287.052C541.193 285.228 540.681 283.868 539.657 282.972C538.633 282.044 537.177 281.58 535.289 281.58C533.625 281.58 532.265 281.916 531.209 282.588C530.153 283.228 529.305 284.108 528.665 285.228L526.073 283.308C526.393 282.668 526.825 282.044 527.369 281.436C527.913 280.828 528.585 280.3 529.385 279.852C530.185 279.372 531.097 279.004 532.121 278.748C533.145 278.46 534.281 278.316 535.529 278.316C538.441 278.316 540.745 279.052 542.441 280.524C544.169 281.996 545.033 284.044 545.033 286.668V300.3H548.489V303.66H545.849ZM534.425 301.02C535.417 301.02 536.313 300.908 537.113 300.684C537.945 300.428 538.665 300.108 539.273 299.724C539.881 299.308 540.345 298.828 540.665 298.284C541.017 297.708 541.193 297.1 541.193 296.46V292.38H535.913C533.609 292.38 531.929 292.7 530.873 293.34C529.817 293.98 529.289 294.908 529.289 296.124V297.132C529.289 298.412 529.737 299.388 530.633 300.06C531.561 300.7 532.825 301.02 534.425 301.02Z" fill="#130F09"/>
<path d="M252.97 273.75L252.92 273.79C252.92 273.79 233.69 301.35 233.68 301.37C219.19 318.12 191.08 307.59 191.19 285.4C191.2 285.38 198.5 223.93 198.5 223.9L198.6 223.04C199.41 195.23 229.34 176.46 254.68 189.16C266.22 189.18 292.92 189.15 305.58 189.16C307.36 189.19 308.23 189.12 308.92 189.17C308.78 189.57 309.19 266.77 308.78 267.69C307.68 267.67 297.64 267.74 296.56 267.69C291.09 287.53 263.85 291.58 252.98 273.75H252.97ZM273.4 277.18C282.1 277.25 289.43 270 289.42 261.25V261.07C289.6 249.92 277.39 241.9 267.26 246.37C251.22 253.22 255.99 277.02 273.4 277.18ZM266.39 233.13C266.39 227.81 266.31 220.75 266.31 215.44C266.31 214.23 264.88 213.4 263.62 213.4C262 213.4 250.71 213.41 247.85 213.4C247.85 210.37 247.85 203.95 247.85 200.47C247.85 198.36 247.57 196.41 245.38 196.41C240.47 196.41 233.03 196.45 227.85 196.45C225.4 196.45 225.65 198.89 225.65 201.52C225.65 204.53 225.67 210.67 225.65 213.4C222.88 213.41 216.33 213.39 213.31 213.4C212.09 213.43 211.56 213.44 210.57 213.44C209.44 213.44 208.28 214.5 208.28 215.61C208.28 217.88 208.29 228.45 208.29 233.4C208.29 234.72 209.82 235.61 211.02 235.61C211.96 235.61 222.79 235.59 225.65 235.61C225.66 238.45 225.64 245.41 225.65 248.67C225.71 251.08 225.04 254.13 228 254.62C229.49 254.71 238.81 254.62 242.82 254.65C244.11 254.61 244.7 254.77 245.81 254.55C247 254.32 247.87 253.04 247.85 251.93C247.86 251.16 247.85 238.99 247.85 235.61C251.31 235.6 259.84 235.6 262.09 235.6C264.22 235.6 266.39 235.34 266.39 233.13Z" fill="#130F09"/>
<path d="M284.03 261.25C284.18 268.61 275.92 273.99 269.27 270.95C258.7 266.43 261.93 250.57 273.4 250.54C279.15 250.49 284.02 255.31 284.03 261.08V261.25Z" fill="#130F09"/>
<path d="M256.6 226.83C256.72 228.46 255.68 230.17 254.04 230.61C252.36 230.96 250.48 230.69 248.7 230.77C246.25 231.03 244.92 228.65 243.52 227.06C241.12 224.13 243.74 221.93 245.58 219.74L245.66 219.65C246.56 218.68 247.76 218.39 249.08 218.47C250.05 218.47 251.76 218.48 252.77 218.47C254.52 218.38 256.25 219.64 256.53 221.42C256.69 222.67 256.55 224.98 256.6 226.83Z" fill="#130F09"/>
<path d="M243.32 212.85C243.58 215.3 241.2 216.63 239.61 218.03C236.68 220.43 234.48 217.81 232.29 215.97L232.21 215.89C231.23 214.99 230.95 213.78 231.03 212.47C231.02 211.5 231.03 209.79 231.03 208.78C230.93 207.03 232.19 205.3 233.98 205.02C235.22 204.86 237.53 205 239.38 204.95C241.02 204.83 242.72 205.87 243.16 207.51C243.51 209.19 243.24 211.07 243.32 212.85Z" fill="#130F09"/>
<path d="M242.14 233.3C243.11 234.2 243.4 235.41 243.32 236.72V240.41C243.42 242.16 242.16 243.9 240.37 244.17C239.12 244.33 236.82 244.19 234.96 244.24C233.33 244.36 231.63 243.32 231.19 241.68C230.84 240.01 231.11 238.12 231.03 236.34C230.76 233.9 233.14 232.56 234.74 231.16C237.66 228.76 239.86 231.38 242.06 233.22L242.14 233.3Z" fill="#130F09"/>
<path d="M230.56 222.18C232.96 225.11 230.33 227.31 228.49 229.51L228.42 229.59C227.52 230.56 226.31 230.85 225 230.77H221.3C219.55 230.86 217.82 229.61 217.55 227.82C217.39 226.57 217.52 224.27 217.48 222.41C217.36 220.78 218.4 219.08 220.04 218.63C221.71 218.28 223.6 218.56 225.37 218.47C227.82 218.21 229.15 220.59 230.56 222.18Z" fill="#130F09"/>
<path d="M310.88 173.1C266.43 135.32 209.88 158.59 209.88 158.59L156.48 311.18C175.12 311.92 207.28 315.59 242.74 332.77C276.56 349.15 298.72 370.72 310.89 384.48V173.685L310.88 173.1Z" stroke="#130F09" stroke-width="5" stroke-miterlimit="10"/>
<path d="M308.12 381.42C297.58 370.1 275.79 349.64 242.43 337.54C206.68 324.58 176.18 327.95 161.54 330.61L168.74 313.16" stroke="#130F09" stroke-width="5" stroke-miterlimit="10"/>
<path d="M306.15 379.21C297.1 370.73 278.32 355.43 249.28 346.72C218.16 337.38 191.38 340.45 178.51 342.72L185.1 329.26" stroke="#130F09" stroke-width="5" stroke-miterlimit="10"/>
</g>
<g clip-path="url(#clip1_82_505)">
<path d="M509.1 201.383L519.494 207.406L508.622 229.912L498.581 224.192L493.55 234.067L482.708 228.323L487.838 217.604L476.924 211.12L482.214 199.763L492.738 205.688L498.124 195.023L509.1 201.383Z" fill="#D0CFB7"/>
<path d="M482.214 199.763L460.919 187.758L448.782 181.039L444.608 191.627L434.103 186.466L439.223 174.571L429.409 168.461L439.338 145.727L450.609 152.907L456.286 140.532L466.721 146.439L467.548 146.938L508.978 172.717L504.045 182.832L514.934 190.016L509.1 201.383L498.124 195.023L492.738 205.688L482.214 199.763Z" fill="#37542C"/>
<path d="M508.622 229.912L508.73 230.263L493.71 234.614L493.55 234.067L498.581 224.192L508.622 229.912Z" fill="#130F09"/>
<path d="M509.93 115.597L498.318 137.421L487.822 131.197L498.785 108.901L509.93 115.597Z" fill="#37542C"/>
<path d="M418.745 47.7037L407.408 41.1198L407.624 40.7482L413.006 29.5908L423.757 35.5576L444.912 48.0914L450.378 37.5444L504.146 69.1872L499.059 79.87L509.802 86.4588L504.428 97.4261L471.894 78.5454L450.431 66.0833L439.57 59.7849L428.148 53.1527L418.745 47.7037Z" fill="#D34E25"/>
<path d="M493.55 234.067L493.71 234.614L477.428 239.349L482.708 228.322L493.55 234.067Z" fill="#130F09"/>
<path d="M504.428 97.4261L498.785 108.901L487.467 102.118L477.269 124.927L455.249 111.871L461.005 101.441L471.597 107.614L477.834 96.4361L465.961 88.9383L471.894 78.5455L504.428 97.4261Z" fill="#37542C"/>
<path d="M498.318 137.421L482.834 142.22L482.671 141.703L487.821 131.197L498.318 137.421Z" fill="#130F09"/>
<path d="M487.576 246.073L477.218 267.05L466.23 261.041L471.189 250.537L449.305 238.819L455.285 226.753L444.307 220.303L449.841 209.461L450.343 209.78L460.233 215.826L466.295 204.813L476.924 211.12L471.635 222.467L482.707 228.323L477.428 239.349L487.576 246.073Z" fill="#37542C"/>
<path d="M498.785 108.901L487.822 131.197L477.27 124.927L487.468 102.118L498.785 108.901Z" fill="#D0CFB7"/>
<path d="M487.838 217.604L482.708 228.323L471.635 222.466L476.924 211.119L487.838 217.604Z" fill="#130F09"/>
<path d="M477.219 267.05L477.253 267.867L464.631 271.277L453.803 263.876L458.088 255.318L444.726 248.063L449.306 238.819L471.19 250.537L466.231 261.041L477.219 267.05Z" fill="#130F09"/>
<path d="M468.868 203.185L456.455 196.521L460.92 187.758L482.215 199.763L476.925 211.12L466.296 204.813L466.137 204.356L468.711 203.472L468.868 203.185Z" fill="#130F09"/>
<path d="M487.822 131.197L482.671 141.703L472.278 136.091L477.269 124.927L487.822 131.197Z" fill="#37542C"/>
<path d="M482.671 141.703L482.834 142.221L467.548 146.938L466.721 146.439L472.279 136.091L482.671 141.703Z" fill="#130F09"/>
<path d="M477.27 124.928L472.279 136.092L466.721 146.439L456.286 140.532L444.599 133.935L412.413 115.74L400.852 109.195L390.874 103.552L396.184 92.5185L428.472 110.161L433.262 99.6411L423.704 93.1632L428.857 82.3058L438.884 88.3956L450.431 66.0837L471.894 78.5458L465.961 88.9386L477.834 96.4365L471.597 107.614L461.005 101.442L455.249 111.871L477.27 124.928Z" fill="#D0CFB7"/>
<path d="M466.137 204.356L466.295 204.813L460.234 215.826L450.344 209.779L466.137 204.356Z" fill="#130F09"/>
<path d="M460.919 187.758L456.455 196.511L449.841 209.461L444.307 220.303L455.275 226.752L449.295 238.818L444.715 248.062L402.017 222.737L406.639 213.798L373.485 194.036L379.342 183.918L346.752 164.359L364.195 130.435L366.247 131.692L374.81 136.901L369.712 147.483L379.885 154.269L385.138 143.2L374.81 136.901L385.579 114.527L386.569 115.011L395.923 120.345L390.779 131.957L422.75 150.303L428.58 138.866L439.339 145.717L429.41 168.451L439.223 174.561L434.114 186.457L444.619 191.618L448.792 181.04L460.929 187.759L460.919 187.758ZM401.448 167.052L406.219 156.531L396.252 150.015L389.857 160.193L401.448 167.052Z" fill="#D34E25"/>
<path d="M456.286 140.532L450.61 152.907L439.339 145.727L444.131 134.755L444.6 133.935L456.286 140.532Z" fill="#D34E25"/>
<path d="M444.725 248.063L430.899 251.782L390.224 226.837L393.63 217.594L361.343 198.224L366.487 188.109L314.028 156.317L335.339 111.647L348.442 106.856L327.038 152.522L346.752 164.359L379.343 183.918L373.485 194.036L406.64 213.798L402.017 222.737L444.725 248.063Z" fill="#130F09"/>
<path d="M444.6 133.935L444.131 134.755L439.339 145.727L428.581 138.866L422.751 150.303L390.78 131.957L395.913 120.344L406.65 126.47L412.414 115.74L444.6 133.935Z" fill="#37542C"/>
<path d="M450.431 66.0835L438.884 88.3955L428.857 82.3056L439.57 59.7851L450.431 66.0835Z" fill="#37542C"/>
<path d="M439.57 59.7853L428.857 82.3058L419.096 76.3814L413.093 87.1995L380.241 67.9677L386.078 56.3506L396.336 61.8996L401.628 52.0294L412.966 58.6939L422.383 64.2145L427.716 54.1172C427.741 54.0692 427.708 53.9958 427.658 53.9912L428.147 53.1631L439.559 59.7943L439.57 59.7853Z" fill="#D0CFB7"/>
<path d="M396.185 92.5184L390.875 103.552L379.237 96.97L385.057 85.8535L374.411 79.1935L380.241 67.9675L413.094 87.1994L419.097 76.3812L428.858 82.3056L423.705 93.163L433.263 99.641L428.473 110.161L396.185 92.5184Z" fill="#37542C"/>
<path d="M427.668 53.9818C427.718 53.9865 427.752 54.0599 427.727 54.1078L422.394 64.2052L412.977 58.6846L413.001 58.6366L413.711 57.2768L413.892 57.3841L427.628 53.9881C427.628 53.9881 427.649 53.97 427.669 53.9719L427.668 53.9818Z" fill="#130F09"/>
<path d="M428.628 25.0357L423.757 35.5579L413.006 29.5912L407.624 40.7486L407.408 41.1202L386.783 29.1481L397.495 7.1799L428.628 25.0357Z" fill="#D0CFB7"/>
<path d="M400.852 109.195L412.413 115.74L406.649 126.47L395.913 120.344L400.852 109.195Z" fill="#D34E25"/>
<path d="M407.408 41.1199L418.744 47.7039L413.701 57.276L412.991 58.6358L412.967 58.6837L401.627 52.0292L396.325 61.8985L386.077 56.3504L380.24 67.9675L370.55 62.4715L386.783 29.1479L407.408 41.1199Z" fill="#37542C"/>
<path d="M406.219 156.53L401.448 167.052L389.857 160.193L396.252 150.014L406.219 156.53Z" fill="#37542C"/>
<path d="M390.874 103.552L400.852 109.195L395.913 120.344L386.559 115.01L385.579 114.527L390.874 103.552Z" fill="#37542C"/>
<path d="M390.874 103.552L385.58 114.527L374.81 136.901L366.248 131.692L366.854 130.684L377.55 108.021L367.035 100.068L371.919 89.5165L361.695 83.5991L367.036 72.3474L357.793 66.7928L385.552 11.1654L397.495 7.17988L386.783 29.1481L370.55 62.4717L380.241 67.9677L374.41 79.1936L385.057 85.8536L379.236 96.9701L390.874 103.552Z" fill="#130F09"/>
<path d="M385.138 143.2L379.886 154.259L369.712 147.483L374.81 136.901L385.138 143.2Z" fill="#37542C"/>
<path d="M364.196 130.435L346.753 164.359L327.039 152.522L348.443 106.856L358.609 113.391L353.06 123.649L364.196 130.435Z" fill="#37542C"/>
<path d="M397.495 7.17986L428.628 25.0356L423.757 35.5579L444.912 48.0917L450.378 37.5447L504.146 69.1875L499.059 79.8704L509.802 86.4591L504.428 97.4264L498.785 108.901L487.822 131.197L482.672 141.703L472.279 136.091L466.722 146.439L456.286 140.532L444.6 133.935L412.414 115.74L400.853 109.195L390.875 103.552L379.237 96.9701L385.057 85.8536L374.411 79.1936L380.241 67.9676L370.551 62.4717L386.783 29.1481L397.495 7.17986Z" stroke="#130F09" stroke-miterlimit="10"/>
<path d="M466.722 146.439L467.549 146.938L508.979 172.717L504.046 182.832L514.934 190.016L509.101 201.383L509.085 201.442" stroke="#130F09" stroke-miterlimit="10"/>
<path d="M374.81 136.901L366.248 131.692L364.196 130.435L353.06 123.649L358.609 113.391L348.443 106.856L327.039 152.522L346.753 164.359L379.343 183.917L373.486 194.036L406.64 213.798L402.018 222.737L444.726 248.063L449.306 238.819L455.285 226.753L444.308 220.303L449.842 209.461L456.455 196.521L460.92 187.758L482.215 199.763L492.739 205.688L498.125 195.023L509.101 201.383L519.495 207.407L508.623 229.912L498.582 224.193L493.551 234.067L482.708 228.323L471.635 222.467L476.925 211.12L482.215 199.763L482.591 198.964" stroke="#130F09" stroke-miterlimit="10"/>
<path d="M374.81 136.901L369.712 147.483L379.886 154.259L385.138 143.2L374.81 136.901Z" stroke="#130F09" stroke-miterlimit="10"/>
<path d="M396.521 91.8165L396.184 92.5182L390.874 103.552L385.579 114.527L374.81 136.901" stroke="#130F09" stroke-miterlimit="10"/>
<path d="M449.841 209.461L450.343 209.78L460.233 215.826L466.295 204.813L476.924 211.12L487.838 217.604L482.707 228.323L477.428 239.349L487.576 246.073L477.218 267.05L466.23 261.041L471.189 250.537L449.305 238.819" stroke="#130F09" stroke-miterlimit="10"/>
<path d="M450.58 65.7762L450.431 66.0837L438.884 88.3956L428.857 82.3058L419.096 76.3814L413.093 87.1995L380.241 67.9677L386.078 56.3506L396.336 61.8996L401.627 52.0294L412.966 58.6939L422.383 64.2145L427.716 54.1172C427.741 54.0692 427.708 53.9958 427.658 53.9912C427.638 53.9893 427.636 54.0092 427.616 54.0073L413.88 57.4034" stroke="#130F09" stroke-miterlimit="10"/>
<path d="M418.781 47.6371L418.745 47.704L413.702 57.2761L412.992 58.6359" stroke="#130F09" stroke-miterlimit="10"/>
<path d="M386.783 29.1479L407.408 41.12L418.745 47.7039L428.148 53.153L439.57 59.7851L450.431 66.0835L471.894 78.5457L504.428 97.4263L504.474 97.4708" stroke="#130F09" stroke-miterlimit="10"/>
<path d="M471.894 78.5455L465.961 88.9383L477.834 96.4361L471.597 107.614L461.005 101.441L455.249 111.871L477.269 124.927L487.822 131.197L498.318 137.421L509.93 115.597L498.785 108.901L487.467 102.118L477.269 124.927L472.279 136.091" stroke="#130F09" stroke-miterlimit="10"/>
<path d="M439.57 59.785L428.857 82.3055L423.704 93.163L433.263 99.6409L428.473 110.161L396.185 92.5183" stroke="#130F09" stroke-miterlimit="10"/>
<path d="M386.559 115.01L395.913 120.344L406.65 126.47L412.414 115.74" stroke="#130F09" stroke-miterlimit="10"/>
<path d="M400.852 109.195L395.913 120.344L390.78 131.956L422.751 150.302L428.581 138.865L439.339 145.727L450.609 152.907L456.286 140.532" stroke="#130F09" stroke-miterlimit="10"/>
<path d="M444.131 134.755L439.339 145.727L429.409 168.461L439.223 174.571L434.104 186.466L444.609 191.626L448.783 181.039L460.92 187.758" stroke="#130F09" stroke-miterlimit="10"/>
<path d="M396.252 150.014L406.219 156.53L401.448 167.052L389.857 160.193L396.252 150.014Z" stroke="#130F09" stroke-miterlimit="10"/>
<path d="M364.196 130.435L346.752 164.359" stroke="#130F09" stroke-miterlimit="10"/>
<path d="M423.757 35.5579L413.005 29.5911L407.623 40.7485" stroke="#130F09" stroke-miterlimit="10"/>
<path d="M397.495 7.17988L385.552 11.1654L357.793 66.7928L367.036 72.3474L361.695 83.5991L371.919 89.5165L367.035 100.068L377.55 108.021L366.854 130.684" stroke="#130F09" stroke-miterlimit="10"/>
<path d="M348.442 106.856L335.339 111.647L314.028 156.317L366.487 188.109L361.343 198.224L393.63 217.594L390.224 226.837L430.899 251.782L444.725 248.063L458.088 255.318L453.802 263.876L464.631 271.277L477.253 267.867" stroke="#130F09" stroke-miterlimit="10"/>
<path d="M468.711 203.472L466.138 204.356L450.344 209.78" stroke="#130F09" stroke-miterlimit="10"/>
<path d="M456.454 196.521L468.868 203.185L469.527 203.548" stroke="#130F09" stroke-miterlimit="10"/>
<path d="M467.549 146.938L482.834 142.221L498.318 137.421" stroke="#130F09" stroke-miterlimit="10"/>
<path d="M508.792 230.25L508.73 230.264L493.71 234.614L477.429 239.349" stroke="#130F09" stroke-miterlimit="10"/>
</g>
<g clip-path="url(#clip2_82_505)">
<path d="M159.944 365.041L186.365 450.243L172.1 459.105L145.084 374.892L135.351 376.878L125.634 345.76L116.649 347.319L113.375 336.831L103.244 338.876L100.124 328.826L80.5732 333.216L77.2582 322.51L38.6379 331.147L38.4855 330.939L50.2577 322.482L90.6677 312.651L94.0288 323.256L113.956 319.01L116.615 328.903L127.815 326.589L130.873 337.376L139.977 336.041L149.762 366.478L159.944 365.041Z" fill="#130F09"/>
<path d="M40.6777 337.41L38.6371 331.147L77.2575 322.51L80.5725 333.216L100.123 328.826L103.243 338.876L113.375 336.831L116.648 347.319L125.633 345.759L135.35 376.878L145.083 374.892L172.1 459.105L162.132 461.913L158.258 450.898L149.151 453.019L148.54 451.289L145.495 442.679L136.183 444.841L139.297 455.56L129.838 457.999L133.071 468.435L133.075 468.47L113.159 473.132L106.354 451.777L102.793 452.604L87.008 456.273L93.7261 477.441L74.11 482.026L70.827 471.288L60.7998 473.622L60.5028 472.482L58.0107 463.019L47.8413 465.617L51.5136 476.268L41.8056 478.294L44.7761 488.824L44.7959 488.885L34.9339 491.196L8.99557 406.157L19.1912 403.834L22.4963 414.73L31.8285 412.713L35.0059 423.147L54.9411 418.692L51.6949 408.049L61.5684 405.785L52.0003 374.179L42.1067 376.306L38.8421 365.615L18.6094 370.168L17.6232 366.699L15.4696 359.104L25.2371 356.899L24.264 353.714L22.1603 346.789L42.2643 342.276L40.6777 337.41ZM119.73 392.361L110.089 361.013L100.27 363.125L96.8025 352.642L77.4736 357.241L80.8979 367.631L71.0382 369.747L74.3578 380.064L81.1868 401.298L90.7332 399.114L90.7582 399.23L93.9975 409.728L113.444 405.264L109.994 394.828L119.73 392.361Z" fill="#D34E25"/>
<path d="M145.495 442.679L148.54 451.289L147.926 451.508L145.11 452.319L147.266 460.158L133.349 468.346L133.071 468.435L129.838 457.999L139.297 455.559L136.183 444.841L145.495 442.679Z" fill="#130F09"/>
<path d="M110.089 361.013L119.73 392.361L109.995 394.827L113.444 405.264L93.9979 409.728L90.7586 399.23L90.7336 399.114L100.348 396.916L93.6652 375.675L74.3581 380.063L71.0385 369.747L80.8982 367.631L77.474 357.241L96.8028 352.642L100.271 363.125L110.089 361.013Z" fill="#D0CFB7"/>
<path d="M102.865 452.917L107.827 468.832L93.7263 477.441L87.0082 456.273L102.793 452.604L102.865 452.917Z" fill="#130F09"/>
<path d="M93.6649 375.675L100.348 396.916L90.7333 399.114L81.1869 401.297L74.3579 380.063L93.6649 375.675Z" fill="#37542C"/>
<path d="M52.0004 374.179L61.5685 405.785L51.695 408.048L54.9412 418.692L35.006 423.147L31.8286 412.713L42.0749 410.483L35.466 389.144L16.0767 393.547L16.0227 393.566L12.816 383.19L13.0262 383.129L22.0406 380.849L18.6095 370.168L38.8422 365.615L42.1068 376.305L52.0004 374.179Z" fill="#D0CFB7"/>
<path d="M60.5034 472.481L60.0138 472.611L56.696 473.867L59.0738 480.815L45.2795 488.686L44.7767 488.824L41.8062 478.293L51.5142 476.268L47.8419 465.617L58.0112 463.018L60.5034 472.481Z" fill="#130F09"/>
<path d="M40.6782 337.41L42.2648 342.276L22.1608 346.789L34.8779 338.59L40.6782 337.41Z" fill="#130F09"/>
<path d="M35.4662 389.144L42.0751 410.483L31.8288 412.712L22.4966 414.73L19.1915 403.834L18.1414 400.427L16.0229 393.566L16.0769 393.547L35.4662 389.144Z" fill="#37542C"/>
<path d="M24.2646 353.714L25.2377 356.899L15.4701 359.104L23.824 353.847L24.2646 353.714Z" fill="#130F09"/>
<path d="M18.61 370.168L22.0411 380.849L13.0267 383.128L12.8164 383.19L9.43635 372.239L18.61 370.168Z" fill="#D34E25"/>
<path d="M17.6235 366.699L18.6098 370.168L9.43613 372.239L17.2363 366.805L17.6235 366.699Z" fill="#130F09"/>
<path d="M18.1417 400.427L19.1917 403.834L8.99612 406.157L17.3421 400.671L18.1417 400.427Z" fill="#130F09"/>
<path d="M38.6371 331.147L77.2575 322.51L80.5725 333.216L100.123 328.826L103.243 338.876L113.375 336.831L116.648 347.319L125.633 345.759L135.35 376.878L145.083 374.892L172.1 459.105L162.132 461.913L158.258 450.898L149.151 453.019L148.54 451.289L145.495 442.679L136.183 444.841L139.297 455.56L129.838 457.999L133.071 468.435L133.082 468.469L113.159 473.132L106.354 451.777L102.793 452.604L87.008 456.273L93.7261 477.441L74.11 482.026L70.827 471.288L60.7998 473.622L60.5028 472.482L58.0107 463.019L47.8413 465.617L51.5136 476.268L41.8056 478.294L44.7761 488.824L44.7959 488.885L34.9339 491.196L8.99557 406.157L19.1912 403.834L18.1412 400.427L16.0226 393.566L12.8159 383.19L9.43582 372.24L18.6094 370.168L17.6232 366.699L15.4696 359.104L25.2371 356.899L24.264 353.714L22.1603 346.789L42.2643 342.276L40.6777 337.41L38.6371 331.147Z" stroke="#130F09" stroke-width="2" stroke-miterlimit="10"/>
<path d="M13.0269 383.128L22.0413 380.849L18.6102 370.168L38.8428 365.615L42.1074 376.305L52.001 374.179L61.5692 405.785L51.6957 408.048L54.9419 418.692L35.0067 423.147L31.8292 412.712L22.497 414.73L19.1919 403.834" stroke="#130F09" stroke-width="2" stroke-miterlimit="10"/>
<path d="M16.0773 393.547L35.4666 389.144L42.0755 410.483L31.8292 412.712" stroke="#130F09" stroke-width="2" stroke-miterlimit="10"/>
<path d="M74.3581 380.063L93.6652 375.675L100.348 396.916L90.7336 399.114L81.1871 401.297L74.3581 380.063ZM74.3581 380.063L71.0385 369.747L80.8982 367.631L77.474 357.241L96.8028 352.642L100.271 363.125L110.089 361.013L119.73 392.361L109.995 394.827L113.444 405.264L93.9979 409.728L90.7586 399.23" stroke="#130F09" stroke-width="2" stroke-miterlimit="10"/>
<path d="M38.1397 331.188L38.4855 330.939L50.2577 322.482L90.6677 312.651L94.0288 323.255L113.956 319.01L116.615 328.902L127.815 326.589L130.873 337.375L139.977 336.041L149.762 366.478L159.944 365.041L186.365 450.243L172.1 459.105" stroke="#130F09" stroke-width="2"/>
<path d="M133.349 468.346L147.266 460.158L145.11 452.319L147.926 451.508" stroke="#130F09" stroke-width="2"/>
<path d="M45.2788 488.686L59.0731 480.815L56.6953 473.867L60.0131 472.612" stroke="#130F09" stroke-width="2" stroke-miterlimit="10"/>
<path d="M93.7264 477.441L107.827 468.832L102.865 452.917" stroke="#130F09" stroke-width="2" stroke-miterlimit="10"/>
<path d="M8.99596 406.157L17.342 400.671" stroke="#130F09" stroke-width="2" stroke-miterlimit="10"/>
<path d="M9.43639 372.24L17.2365 366.806" stroke="#130F09" stroke-width="2" stroke-miterlimit="10"/>
<path d="M15.4694 359.103L23.8233 353.846" stroke="#130F09" stroke-width="2" stroke-miterlimit="10"/>
<path d="M22.1608 346.789L34.8779 338.59L40.6782 337.41L40.7059 337.408" stroke="#130F09" stroke-width="2" stroke-miterlimit="10"/>
</g>
<defs>
<clipPath id="clip0_82_505">
<rect width="398.01" height="253.56" fill="white" transform="translate(153 149)"/>
</clipPath>
<clipPath id="clip1_82_505">
<rect width="210.59" height="257.93" fill="white" transform="translate(328.012) rotate(5.34154)"/>
</clipPath>
<clipPath id="clip2_82_505">
<rect width="174" height="174" fill="white" transform="translate(0 320.518) rotate(-5.44723)"/>
</clipPath>
</defs>
</svg>
