<svg width="25" height="26" viewBox="0 0 25 26" fill="none" xmlns="http://www.w3.org/2000/svg">
<g clip-path="url(#clip0_66_564)">
<path d="M3.49394 1.75178C2.43934 2.4011 0.359283 4.87255 0.339844 5.52187V6.59401C0.339844 7.95809 1.56941 9.15103 2.68719 9.15103C4.02853 9.15103 5.14146 7.99836 5.14146 6.63428C5.14146 7.99836 6.22037 9.15103 7.56171 9.15103C8.90305 9.15103 9.94308 7.99836 9.94308 6.63428C9.94308 7.99836 11.09 9.15103 12.4314 9.15103H12.4557C13.797 9.15103 14.9439 7.99836 14.9439 6.63428C14.9439 7.99836 15.9888 9.15103 17.3253 9.15103C18.6618 9.15103 19.7456 7.99836 19.7456 6.63428C19.7456 7.99836 20.8633 9.15103 22.1998 9.15103C23.3176 9.15103 24.5472 7.95305 24.5472 6.59401V5.52187C24.5277 4.87255 22.4477 2.39607 21.3931 1.74674C18.1078 1.63097 15.8333 1.61084 12.4411 1.61084C9.04885 1.61084 4.42705 1.66621 3.49394 1.75178ZM9.92364 8.51681C8.85445 10.4497 6.13775 10.4648 5.06856 8.53191C4.42705 9.69465 2.96907 10.1477 2.347 9.92619C2.15746 11.9497 1.68119 21.8606 3.20721 23.4764C7.09515 24.4176 17.8891 24.3874 21.6652 23.4764C23.2058 21.8506 22.7004 11.7987 22.5303 9.92619C21.9034 10.1477 20.4454 9.69465 19.8087 8.53191C18.7396 10.4698 16.0229 10.4497 14.9537 8.52184C14.6086 9.15103 13.831 9.97652 12.4362 9.97652C11.9286 9.9939 11.426 9.86765 10.9824 9.61134C10.5389 9.35504 10.1711 8.97837 9.91878 8.52184L9.92364 8.51681ZM7.9019 11.2248C8.70379 11.2248 9.41334 11.2248 10.293 12.2215C11.7182 12.0717 13.1543 12.0717 14.5795 12.2215C15.464 11.2248 16.1784 11.2248 16.9754 11.2248C19.5171 11.2248 20.1441 15.1258 21.0529 18.4982C21.8937 21.6291 20.7856 21.7046 19.4005 21.7046C17.3496 21.6241 16.2173 20.0838 16.2173 18.5435C14.3073 18.8657 11.265 18.9865 8.65519 18.5435C8.65519 20.0838 7.52283 21.6241 5.47194 21.7046C4.09171 21.6996 2.98365 21.6241 3.82442 18.4982C4.73322 15.1258 5.36016 11.2248 7.9019 11.2248ZM12.4411 13.6308C12.4411 13.6308 10.2833 15.6845 9.89448 16.4093L11.3039 16.3489V17.6224C11.3039 17.703 12.339 17.6325 12.4362 17.6325C13.0048 17.6576 13.5686 17.6828 13.5686 17.6224V16.3489L14.978 16.4093C14.5892 15.6795 12.4314 13.6308 12.4314 13.6308H12.4411Z" fill="#D9D9D9"/>
</g>
<defs>
<clipPath id="clip0_66_564">
<rect width="24.8829" height="25.7715" fill="white"/>
</clipPath>
</defs>
</svg>
