<svg width="538" height="494" viewBox="0 0 538 494" fill="none" xmlns="http://www.w3.org/2000/svg">
<rect x="327.5" y="244.5" width="202" height="148" fill="#37542C" stroke="#130F09" stroke-width="3"/>
<rect x="128.5" y="181.5" width="198" height="239" fill="#37542C" stroke="#130F09" stroke-width="3"/>
<mask id="path-3-inside-1_148_377" fill="white">
<path d="M329 258H513V405H143V135H329V258Z"/>
</mask>
<path d="M329 258H513V405H143V135H329V258Z" fill="#D2A416"/>
<path d="M329 258H326V261H329V258ZM513 258H516V255H513V258ZM513 405V408H516V405H513ZM143 405H140V408H143V405ZM143 135V132H140V135H143ZM329 135H332V132H329V135ZM329 258V261H513V258V255H329V258ZM513 258H510V405H513H516V258H513ZM513 405V402H143V405V408H513V405ZM143 405H146V135H143H140V405H143ZM143 135V138H329V135V132H143V135ZM329 135H326V258H329H332V135H329Z" fill="#130F09" mask="url(#path-3-inside-1_148_377)"/>
<g clip-path="url(#clip0_148_377)">
<path d="M250.97 274.75L250.92 274.79C250.92 274.79 231.69 302.35 231.68 302.37C217.19 319.12 189.08 308.59 189.19 286.4C189.2 286.38 196.5 224.93 196.5 224.9L196.6 224.04C197.41 196.23 227.34 177.46 252.68 190.16C264.22 190.18 290.92 190.15 303.58 190.16C305.36 190.19 306.23 190.12 306.92 190.17C306.78 190.57 307.19 267.77 306.78 268.69C305.68 268.67 295.64 268.74 294.56 268.69C289.09 288.53 261.85 292.58 250.98 274.75H250.97ZM271.4 278.18C280.1 278.25 287.43 271 287.42 262.25V262.07C287.6 250.92 275.39 242.9 265.26 247.37C249.22 254.22 253.99 278.02 271.4 278.18ZM264.39 234.13C264.39 228.81 264.31 221.75 264.31 216.44C264.31 215.23 262.88 214.4 261.62 214.4C260 214.4 248.71 214.41 245.85 214.4C245.85 211.37 245.85 204.95 245.85 201.47C245.85 199.36 245.57 197.41 243.38 197.41C238.47 197.41 231.03 197.45 225.85 197.45C223.4 197.45 223.65 199.89 223.65 202.52C223.65 205.53 223.67 211.67 223.65 214.4C220.88 214.41 214.33 214.39 211.31 214.4C210.09 214.43 209.56 214.44 208.57 214.44C207.44 214.44 206.28 215.5 206.28 216.61C206.28 218.88 206.29 229.45 206.29 234.4C206.29 235.72 207.82 236.61 209.02 236.61C209.96 236.61 220.79 236.59 223.65 236.61C223.66 239.45 223.64 246.41 223.65 249.67C223.71 252.08 223.04 255.13 226 255.62C227.49 255.71 236.81 255.62 240.82 255.65C242.11 255.61 242.7 255.77 243.81 255.55C245 255.32 245.87 254.04 245.85 252.93C245.86 252.16 245.85 239.99 245.85 236.61C249.31 236.6 257.84 236.6 260.09 236.6C262.22 236.6 264.39 236.34 264.39 234.13Z" fill="#130F09"/>
<path d="M282.03 262.25C282.18 269.61 273.92 274.99 267.27 271.95C256.7 267.43 259.93 251.57 271.4 251.54C277.15 251.49 282.02 256.31 282.03 262.08V262.25Z" fill="#130F09"/>
<path d="M254.6 227.83C254.72 229.46 253.68 231.17 252.04 231.61C250.36 231.96 248.48 231.69 246.7 231.77C244.25 232.03 242.92 229.65 241.52 228.06C239.12 225.13 241.74 222.93 243.58 220.74L243.66 220.65C244.56 219.68 245.76 219.39 247.08 219.47C248.05 219.47 249.76 219.48 250.77 219.47C252.52 219.38 254.25 220.64 254.53 222.42C254.69 223.67 254.55 225.98 254.6 227.83Z" fill="#130F09"/>
<path d="M241.32 213.85C241.58 216.3 239.2 217.63 237.61 219.03C234.68 221.43 232.48 218.81 230.29 216.97L230.21 216.89C229.23 215.99 228.95 214.78 229.03 213.47C229.02 212.5 229.03 210.79 229.03 209.78C228.93 208.03 230.19 206.3 231.98 206.02C233.22 205.86 235.53 206 237.38 205.95C239.02 205.83 240.72 206.87 241.16 208.51C241.51 210.19 241.24 212.07 241.32 213.85Z" fill="#130F09"/>
<path d="M240.14 234.3C241.11 235.2 241.4 236.41 241.32 237.72V241.41C241.42 243.16 240.16 244.9 238.37 245.17C237.12 245.33 234.82 245.19 232.96 245.24C231.33 245.36 229.63 244.32 229.19 242.68C228.84 241.01 229.11 239.12 229.03 237.34C228.76 234.9 231.14 233.56 232.74 232.16C235.66 229.76 237.86 232.38 240.06 234.22L240.14 234.3Z" fill="#130F09"/>
<path d="M228.56 223.18C230.96 226.11 228.33 228.31 226.49 230.51L226.42 230.59C225.52 231.56 224.31 231.85 223 231.77H219.3C217.55 231.86 215.82 230.61 215.55 228.82C215.39 227.57 215.52 225.27 215.48 223.41C215.36 221.78 216.4 220.08 218.04 219.63C219.71 219.28 221.6 219.56 223.37 219.47C225.82 219.21 227.15 221.59 228.56 223.18Z" fill="#130F09"/>
<path d="M308.88 174.1C264.43 136.32 207.88 159.59 207.88 159.59L154.48 312.18C173.12 312.92 205.28 316.59 240.74 333.77C274.56 350.15 296.72 371.72 308.89 385.48V174.685L308.88 174.1Z" stroke="#130F09" stroke-width="5" stroke-miterlimit="10"/>
<path d="M306.12 382.42C295.58 371.1 273.79 350.64 240.43 338.54C204.68 325.58 174.18 328.95 159.54 331.61L166.74 314.16" stroke="#130F09" stroke-width="5" stroke-miterlimit="10"/>
<path d="M304.15 380.21C295.1 371.73 276.32 356.43 247.28 347.72C216.16 338.38 189.38 341.45 176.51 343.72L183.1 330.26" stroke="#130F09" stroke-width="5" stroke-miterlimit="10"/>
<path d="M337.04 271.304V291.464C337.04 293.48 337.536 295.032 338.528 296.12C339.52 297.208 340.976 297.752 342.896 297.752C344.816 297.752 346.288 297.208 347.312 296.12C348.336 295.032 348.848 293.48 348.848 291.464V271.304H357.056V291.416C357.056 294.424 356.416 296.968 355.136 299.048C353.856 301.128 352.128 302.696 349.952 303.752C347.808 304.808 345.408 305.336 342.752 305.336C340.096 305.336 337.712 304.824 335.6 303.8C333.52 302.744 331.872 301.176 330.656 299.096C329.44 296.984 328.832 294.424 328.832 291.416V271.304H337.04ZM377.076 299.048H364.5L362.484 305H353.892L366.084 271.304H375.588L387.78 305H379.092L377.076 299.048ZM374.964 292.712L370.788 280.376L366.66 292.712H374.964ZM389.858 269.48V305H385.49V269.48H389.858ZM396.871 283.592C397.767 282.024 399.079 280.744 400.807 279.752C402.535 278.76 404.503 278.264 406.711 278.264C409.079 278.264 411.207 278.824 413.095 279.944C414.983 281.064 416.471 282.648 417.559 284.696C418.647 286.712 419.191 289.064 419.191 291.752C419.191 294.408 418.647 296.776 417.559 298.856C416.471 300.936 414.967 302.552 413.047 303.704C411.159 304.856 409.047 305.432 406.711 305.432C404.439 305.432 402.439 304.936 400.711 303.944C399.015 302.952 397.735 301.688 396.871 300.152V305H392.503V269.48H396.871V283.592ZM414.727 291.752C414.727 289.768 414.327 288.04 413.527 286.568C412.727 285.096 411.639 283.976 410.263 283.208C408.919 282.44 407.431 282.056 405.799 282.056C404.199 282.056 402.711 282.456 401.335 283.256C399.991 284.024 398.903 285.16 398.071 286.664C397.271 288.136 396.871 289.848 396.871 291.8C396.871 293.784 397.271 295.528 398.071 297.032C398.903 298.504 399.991 299.64 401.335 300.44C402.711 301.208 404.199 301.592 405.799 301.592C407.431 301.592 408.919 301.208 410.263 300.44C411.639 299.64 412.727 298.504 413.527 297.032C414.327 295.528 414.727 293.768 414.727 291.752ZM444.14 290.84C444.14 291.672 444.092 292.552 443.996 293.48H422.972C423.132 296.072 424.012 298.104 425.612 299.576C427.244 301.016 429.212 301.736 431.516 301.736C433.404 301.736 434.972 301.304 436.22 300.44C437.5 299.544 438.396 298.36 438.908 296.888H443.612C442.908 299.416 441.5 301.48 439.388 303.08C437.276 304.648 434.652 305.432 431.516 305.432C429.02 305.432 426.78 304.872 424.796 303.752C422.844 302.632 421.308 301.048 420.188 299C419.068 296.92 418.508 294.52 418.508 291.8C418.508 289.08 419.052 286.696 420.14 284.648C421.228 282.6 422.748 281.032 424.7 279.944C426.684 278.824 428.956 278.264 431.516 278.264C434.012 278.264 436.22 278.808 438.14 279.896C440.06 280.984 441.532 282.488 442.556 284.408C443.612 286.296 444.14 288.44 444.14 290.84ZM439.628 289.928C439.628 288.264 439.26 286.84 438.524 285.656C437.788 284.44 436.78 283.528 435.5 282.92C434.252 282.28 432.86 281.96 431.324 281.96C429.116 281.96 427.228 282.664 425.66 284.072C424.124 285.48 423.244 287.432 423.02 289.928H439.628ZM449.474 282.968C450.242 281.464 451.33 280.296 452.738 279.464C454.178 278.632 455.922 278.216 457.97 278.216V282.728H456.818C451.922 282.728 449.474 285.384 449.474 290.696V305H445.106V278.696H449.474V282.968ZM463.54 282.296V297.8C463.54 299.08 463.812 299.992 464.356 300.536C464.9 301.048 465.844 301.304 467.188 301.304H470.404V305H466.468C464.036 305 462.212 304.44 460.996 303.32C459.78 302.2 459.172 300.36 459.172 297.8V282.296H455.764V278.696H459.172V272.072H463.54V278.696H470.404V282.296H463.54ZM469.265 291.752C469.265 289.064 469.809 286.712 470.897 284.696C471.985 282.648 473.473 281.064 475.361 279.944C477.281 278.824 479.409 278.264 481.745 278.264C484.049 278.264 486.049 278.76 487.745 279.752C489.441 280.744 490.705 281.992 491.537 283.496V278.696H495.953V305H491.537V300.104C490.673 301.64 489.377 302.92 487.649 303.944C485.953 304.936 483.969 305.432 481.697 305.432C479.361 305.432 477.249 304.856 475.361 303.704C473.473 302.552 471.985 300.936 470.897 298.856C469.809 296.776 469.265 294.408 469.265 291.752ZM491.537 291.8C491.537 289.816 491.137 288.088 490.337 286.616C489.537 285.144 488.449 284.024 487.073 283.256C485.729 282.456 484.241 282.056 482.609 282.056C480.977 282.056 479.489 282.44 478.145 283.208C476.801 283.976 475.729 285.096 474.929 286.568C474.129 288.04 473.729 289.768 473.729 291.752C473.729 293.768 474.129 295.528 474.929 297.032C475.729 298.504 476.801 299.64 478.145 300.44C479.489 301.208 480.977 301.592 482.609 301.592C484.241 301.592 485.729 301.208 487.073 300.44C488.449 299.64 489.537 298.504 490.337 297.032C491.137 295.528 491.537 293.784 491.537 291.8Z" fill="#130F09"/>
<path d="M344.72 344.152H344.288C343.872 344.888 343.44 345.592 342.992 346.264C342.544 346.904 342.032 347.48 341.456 347.992C340.912 348.472 340.272 348.856 339.536 349.144C338.832 349.432 338 349.576 337.04 349.576C334.288 349.576 332.112 348.536 330.512 346.456C328.944 344.376 328.16 341.304 328.16 337.24C328.16 334.072 328.48 331.128 329.12 328.408C329.792 325.656 330.768 323.288 332.048 321.304C333.36 319.32 334.976 317.768 336.896 316.648C338.848 315.496 341.104 314.92 343.664 314.92C345.392 314.92 346.896 315.16 348.176 315.64C349.456 316.12 350.528 316.808 351.392 317.704C352.256 318.568 352.928 319.608 353.408 320.824C353.888 322.04 354.176 323.368 354.272 324.808L347.408 326.152C347.344 325.448 347.232 324.76 347.072 324.088C346.944 323.416 346.704 322.84 346.352 322.36C346.032 321.848 345.6 321.448 345.056 321.16C344.544 320.84 343.872 320.68 343.04 320.68C341.216 320.68 339.792 321.448 338.768 322.984C337.776 324.52 337.056 326.584 336.608 329.176L335.792 334.072C335.696 334.648 335.6 335.336 335.504 336.136C335.44 336.904 335.408 337.608 335.408 338.248C335.408 339.944 335.76 341.304 336.464 342.328C337.2 343.32 338.336 343.816 339.872 343.816C341.568 343.816 342.896 343.288 343.856 342.232C344.816 341.176 345.424 339.928 345.68 338.488L346.064 336.184H340.16L340.976 331.144H353.168L350.192 349H343.904L344.72 344.152ZM365.005 349.576C362.573 349.576 360.701 348.776 359.389 347.176C358.109 345.576 357.469 343.176 357.469 339.976C357.469 338.312 357.661 336.536 358.045 334.648C358.461 332.728 359.117 330.952 360.013 329.32C360.909 327.688 362.093 326.344 363.565 325.288C365.037 324.2 366.845 323.656 368.989 323.656C370.781 323.656 372.269 324.072 373.453 324.904C374.637 325.704 375.501 326.92 376.045 328.552H376.189L376.909 324.232H380.653L377.101 345.64H380.509L379.933 349H377.149C375.613 349 374.557 348.6 373.981 347.8C373.437 347 373.261 346.04 373.453 344.92L373.741 343.144H373.597C372.637 345.096 371.501 346.664 370.189 347.848C368.877 349 367.149 349.576 365.005 349.576ZM366.301 346.264C367.325 346.264 368.317 346.056 369.277 345.64C370.269 345.192 371.181 344.488 372.013 343.528C372.653 342.792 373.197 341.944 373.645 340.984C374.125 340.024 374.461 338.984 374.653 337.864L375.565 332.392C375.853 330.664 375.453 329.336 374.365 328.408C373.309 327.448 371.869 326.968 370.045 326.968C367.741 326.968 365.917 327.688 364.573 329.128C363.261 330.568 362.413 332.44 362.029 334.744L361.453 338.2C361.389 338.648 361.341 339.048 361.309 339.4C361.277 339.72 361.261 340.04 361.261 340.36C361.261 342.216 361.677 343.672 362.509 344.728C363.373 345.752 364.637 346.264 366.301 346.264ZM384.139 349L388.267 324.232H391.723L391.099 328.12H391.291C391.867 326.872 392.555 325.816 393.355 324.952C394.187 324.088 395.291 323.656 396.667 323.656C398.075 323.656 399.083 324.104 399.691 325C400.299 325.896 400.555 327.016 400.459 328.36H400.603C401.243 326.92 402.043 325.784 403.003 324.952C403.963 324.088 405.163 323.656 406.603 323.656C407.979 323.656 409.019 324.072 409.723 324.904C410.459 325.704 410.827 326.872 410.827 328.408C410.827 328.856 410.795 329.384 410.731 329.992C410.667 330.6 410.587 331.192 410.491 331.768L407.611 349H404.155L406.939 332.392C407.035 331.816 407.115 331.272 407.179 330.76C407.243 330.216 407.275 329.768 407.275 329.416C407.275 327.624 406.571 326.728 405.163 326.728C404.491 326.728 403.899 326.92 403.387 327.304C402.907 327.656 402.459 328.104 402.043 328.648C401.595 329.288 401.227 329.992 400.939 330.76C400.651 331.496 400.443 332.232 400.315 332.968L397.627 349H394.171L396.955 332.392C397.147 331.24 397.243 330.296 397.243 329.56C397.243 328.536 397.067 327.816 396.715 327.4C396.395 326.952 395.899 326.728 395.227 326.728C394.555 326.728 393.947 326.92 393.403 327.304C392.859 327.656 392.395 328.104 392.011 328.648C391.563 329.288 391.195 329.992 390.907 330.76C390.619 331.496 390.411 332.232 390.283 332.968L387.595 349H384.139ZM425.64 349.576C422.504 349.576 420.088 348.712 418.392 346.984C416.696 345.224 415.848 342.552 415.848 338.968C415.848 336.728 416.184 334.68 416.856 332.824C417.528 330.936 418.456 329.32 419.64 327.976C420.856 326.6 422.296 325.544 423.96 324.808C425.656 324.04 427.496 323.656 429.48 323.656C430.696 323.656 431.816 323.8 432.84 324.088C433.864 324.376 434.744 324.808 435.48 325.384C436.248 325.928 436.84 326.616 437.256 327.448C437.672 328.28 437.88 329.24 437.88 330.328C437.88 331.192 437.672 332.088 437.256 333.016C436.872 333.944 436.04 334.808 434.76 335.608C433.512 336.408 431.688 337.08 429.288 337.624C426.92 338.168 423.768 338.488 419.832 338.584C419.8 338.84 419.784 339.08 419.784 339.304C419.784 339.496 419.784 339.624 419.784 339.688C419.784 340.552 419.864 341.384 420.024 342.184C420.184 342.984 420.488 343.704 420.936 344.344C421.384 344.952 422.008 345.448 422.808 345.832C423.608 346.184 424.664 346.36 425.976 346.36C426.872 346.36 427.672 346.264 428.376 346.072C429.112 345.848 429.8 345.528 430.44 345.112C431.112 344.664 431.752 344.104 432.36 343.432C433 342.728 433.672 341.88 434.376 340.888L437.016 342.52C435.608 344.824 434.008 346.584 432.216 347.8C430.456 348.984 428.264 349.576 425.64 349.576ZM429.144 326.776C426.648 326.776 424.616 327.528 423.048 329.032C421.48 330.536 420.52 332.696 420.168 335.512L420.12 335.992C423.128 335.896 425.544 335.672 427.368 335.32C429.224 334.936 430.632 334.488 431.592 333.976C432.584 333.464 433.24 332.904 433.56 332.296C433.88 331.688 434.04 331.08 434.04 330.472C434.04 329.96 433.944 329.48 433.752 329.032C433.592 328.584 433.32 328.2 432.936 327.88C432.552 327.528 432.04 327.256 431.4 327.064C430.792 326.872 430.04 326.776 429.144 326.776ZM453.989 349.576C451.589 349.576 449.493 349.176 447.701 348.376C445.941 347.576 444.517 346.424 443.429 344.92L446.213 342.712C447.173 343.928 448.293 344.856 449.573 345.496C450.853 346.104 452.437 346.408 454.325 346.408C456.533 346.408 458.261 345.992 459.509 345.16C460.757 344.328 461.381 343.16 461.381 341.656C461.381 340.504 461.029 339.72 460.325 339.304C459.653 338.856 458.805 338.552 457.781 338.392L454.181 337.864C453.285 337.736 452.389 337.56 451.493 337.336C450.629 337.08 449.845 336.712 449.141 336.232C448.469 335.752 447.909 335.144 447.461 334.408C447.045 333.64 446.837 332.68 446.837 331.528C446.837 330.216 447.109 329.08 447.653 328.12C448.229 327.128 448.997 326.312 449.957 325.672C450.917 325 452.037 324.504 453.317 324.184C454.597 323.832 455.973 323.656 457.445 323.656C459.621 323.656 461.477 323.992 463.013 324.664C464.549 325.336 465.781 326.264 466.709 327.448L464.069 329.752C463.845 329.432 463.541 329.096 463.157 328.744C462.805 328.392 462.341 328.072 461.765 327.784C461.221 327.496 460.549 327.272 459.749 327.112C458.981 326.92 458.069 326.824 457.013 326.824C454.869 326.824 453.237 327.224 452.117 328.024C451.029 328.824 450.485 329.896 450.485 331.24C450.485 331.848 450.581 332.344 450.773 332.728C450.997 333.112 451.285 333.432 451.637 333.688C451.989 333.912 452.389 334.088 452.837 334.216C453.317 334.312 453.813 334.408 454.325 334.504L457.829 335.08C458.629 335.208 459.445 335.384 460.277 335.608C461.141 335.8 461.925 336.12 462.629 336.568C463.333 336.984 463.909 337.576 464.357 338.344C464.837 339.08 465.077 340.056 465.077 341.272C465.077 342.552 464.805 343.704 464.261 344.728C463.749 345.752 462.997 346.632 462.005 347.368C461.045 348.072 459.877 348.616 458.501 349C457.157 349.384 455.653 349.576 453.989 349.576Z" fill="#130F09"/>
<path d="M349.952 385.048H337.376L335.36 391H326.768L338.96 357.304H348.464L360.656 391H351.968L349.952 385.048ZM347.84 378.712L343.664 366.376L339.536 378.712H347.84ZM362.735 368.968C363.503 367.464 364.591 366.296 365.999 365.464C367.439 364.632 369.183 364.216 371.231 364.216V368.728H370.079C365.183 368.728 362.735 371.384 362.735 376.696V391H358.367V364.696H362.735V368.968ZM369.841 377.8C369.841 375.08 370.385 372.712 371.473 370.696C372.561 368.648 374.065 367.064 375.985 365.944C377.937 364.824 380.161 364.264 382.657 364.264C385.889 364.264 388.545 365.048 390.625 366.616C392.737 368.184 394.129 370.36 394.801 373.144H390.097C389.649 371.544 388.769 370.28 387.457 369.352C386.177 368.424 384.577 367.96 382.657 367.96C380.161 367.96 378.145 368.824 376.609 370.552C375.073 372.248 374.305 374.664 374.305 377.8C374.305 380.968 375.073 383.416 376.609 385.144C378.145 386.872 380.161 387.736 382.657 387.736C384.577 387.736 386.177 387.288 387.457 386.392C388.737 385.496 389.617 384.216 390.097 382.552H394.801C394.097 385.24 392.689 387.4 390.577 389.032C388.465 390.632 385.825 391.432 382.657 391.432C380.161 391.432 377.937 390.872 375.985 389.752C374.065 388.632 372.561 387.048 371.473 385C370.385 382.952 369.841 380.552 369.841 377.8ZM408.885 364.216C410.869 364.216 412.661 364.648 414.261 365.512C415.861 366.344 417.109 367.608 418.005 369.304C418.933 371 419.397 373.064 419.397 375.496V391H415.077V376.12C415.077 373.496 414.421 371.496 413.109 370.12C411.797 368.712 410.005 368.008 407.733 368.008C405.429 368.008 403.589 368.728 402.213 370.168C400.869 371.608 400.197 373.704 400.197 376.456V391H395.829V355.48H400.197V368.44C401.061 367.096 402.245 366.056 403.749 365.32C405.285 364.584 406.997 364.216 408.885 364.216ZM423.988 360.424C423.156 360.424 422.452 360.136 421.876 359.56C421.3 358.984 421.012 358.28 421.012 357.448C421.012 356.616 421.3 355.912 421.876 355.336C422.452 354.76 423.156 354.472 423.988 354.472C424.788 354.472 425.46 354.76 426.004 355.336C426.58 355.912 426.868 356.616 426.868 357.448C426.868 358.28 426.58 358.984 426.004 359.56C425.46 360.136 424.788 360.424 423.988 360.424ZM426.1 364.696V391H421.732V364.696H426.1ZM438.537 386.968L446.697 364.696H451.353L441.033 391H435.945L425.625 364.696H430.329L438.537 386.968ZM474.851 376.84C474.851 377.672 474.803 378.552 474.707 379.48H453.683C453.843 382.072 454.723 384.104 456.323 385.576C457.955 387.016 459.923 387.736 462.227 387.736C464.115 387.736 465.683 387.304 466.931 386.44C468.211 385.544 469.107 384.36 469.619 382.888H474.323C473.619 385.416 472.211 387.48 470.099 389.08C467.987 390.648 465.363 391.432 462.227 391.432C459.731 391.432 457.491 390.872 455.507 389.752C453.555 388.632 452.019 387.048 450.899 385C449.779 382.92 449.219 380.52 449.219 377.8C449.219 375.08 449.763 372.696 450.851 370.648C451.939 368.6 453.459 367.032 455.411 365.944C457.395 364.824 459.667 364.264 462.227 364.264C464.723 364.264 466.931 364.808 468.851 365.896C470.771 366.984 472.243 368.488 473.267 370.408C474.323 372.296 474.851 374.44 474.851 376.84ZM470.339 375.928C470.339 374.264 469.971 372.84 469.235 371.656C468.499 370.44 467.491 369.528 466.211 368.92C464.963 368.28 463.571 367.96 462.035 367.96C459.827 367.96 457.939 368.664 456.371 370.072C454.835 371.48 453.955 373.432 453.731 375.928H470.339ZM477.209 391.288C476.377 391.288 475.673 391 475.097 390.424C474.521 389.848 474.233 389.144 474.233 388.312C474.233 387.48 474.521 386.776 475.097 386.2C475.673 385.624 476.377 385.336 477.209 385.336C478.009 385.336 478.681 385.624 479.225 386.2C479.801 386.776 480.089 387.48 480.089 388.312C480.089 389.144 479.801 389.848 479.225 390.424C478.681 391 478.009 391.288 477.209 391.288Z" fill="#130F09"/>
</g>
<g clip-path="url(#clip1_148_377)">
<path d="M509.1 201.383L519.494 207.406L508.622 229.912L498.581 224.192L493.55 234.067L482.708 228.323L487.838 217.604L476.924 211.12L482.214 199.763L492.738 205.688L498.124 195.023L509.1 201.383Z" fill="#D0CFB7"/>
<path d="M482.214 199.763L460.919 187.758L448.782 181.039L444.608 191.627L434.103 186.466L439.223 174.571L429.409 168.461L439.338 145.727L450.609 152.907L456.286 140.532L466.721 146.439L467.548 146.938L508.978 172.717L504.045 182.832L514.934 190.016L509.1 201.383L498.124 195.023L492.738 205.688L482.214 199.763Z" fill="#37542C"/>
<path d="M508.622 229.912L508.73 230.263L493.71 234.614L493.55 234.067L498.581 224.192L508.622 229.912Z" fill="#130F09"/>
<path d="M509.93 115.597L498.318 137.421L487.822 131.197L498.785 108.901L509.93 115.597Z" fill="#37542C"/>
<path d="M418.745 47.7037L407.408 41.1198L407.624 40.7482L413.006 29.5908L423.757 35.5576L444.912 48.0914L450.378 37.5444L504.146 69.1872L499.059 79.87L509.802 86.4588L504.428 97.4261L471.894 78.5454L450.431 66.0833L439.57 59.7849L428.148 53.1527L418.745 47.7037Z" fill="#D34E25"/>
<path d="M493.55 234.067L493.71 234.614L477.428 239.349L482.708 228.322L493.55 234.067Z" fill="#130F09"/>
<path d="M504.428 97.4261L498.785 108.901L487.467 102.118L477.269 124.927L455.249 111.871L461.005 101.441L471.597 107.614L477.834 96.4361L465.961 88.9383L471.894 78.5455L504.428 97.4261Z" fill="#37542C"/>
<path d="M498.318 137.421L482.834 142.22L482.671 141.703L487.821 131.197L498.318 137.421Z" fill="#130F09"/>
<path d="M487.576 246.073L477.218 267.05L466.23 261.041L471.189 250.537L449.305 238.819L455.285 226.753L444.307 220.303L449.841 209.461L450.343 209.78L460.233 215.826L466.295 204.813L476.924 211.12L471.635 222.467L482.707 228.323L477.428 239.349L487.576 246.073Z" fill="#37542C"/>
<path d="M498.785 108.901L487.822 131.197L477.27 124.927L487.468 102.118L498.785 108.901Z" fill="#D0CFB7"/>
<path d="M487.838 217.604L482.708 228.323L471.635 222.466L476.924 211.119L487.838 217.604Z" fill="#130F09"/>
<path d="M477.219 267.05L477.253 267.867L464.631 271.277L453.803 263.876L458.088 255.318L444.726 248.063L449.306 238.819L471.19 250.537L466.231 261.041L477.219 267.05Z" fill="#130F09"/>
<path d="M468.868 203.185L456.455 196.521L460.92 187.758L482.215 199.763L476.925 211.12L466.296 204.813L466.137 204.356L468.711 203.472L468.868 203.185Z" fill="#130F09"/>
<path d="M487.822 131.197L482.671 141.703L472.278 136.091L477.269 124.927L487.822 131.197Z" fill="#37542C"/>
<path d="M482.671 141.703L482.834 142.221L467.548 146.938L466.721 146.439L472.279 136.091L482.671 141.703Z" fill="#130F09"/>
<path d="M477.27 124.928L472.279 136.092L466.721 146.439L456.286 140.532L444.599 133.935L412.413 115.74L400.852 109.195L390.874 103.552L396.184 92.5185L428.472 110.161L433.262 99.6411L423.704 93.1632L428.857 82.3058L438.884 88.3956L450.431 66.0837L471.894 78.5458L465.961 88.9386L477.834 96.4365L471.597 107.614L461.005 101.442L455.249 111.871L477.27 124.928Z" fill="#D0CFB7"/>
<path d="M466.137 204.356L466.295 204.813L460.234 215.826L450.344 209.779L466.137 204.356Z" fill="#130F09"/>
<path d="M460.919 187.758L456.455 196.511L449.841 209.461L444.307 220.303L455.275 226.752L449.295 238.818L444.715 248.062L402.017 222.737L406.639 213.798L373.485 194.036L379.342 183.918L346.752 164.359L364.195 130.435L366.247 131.692L374.81 136.901L369.712 147.483L379.885 154.269L385.138 143.2L374.81 136.901L385.579 114.527L386.569 115.011L395.923 120.345L390.779 131.957L422.75 150.303L428.58 138.866L439.339 145.717L429.41 168.451L439.223 174.561L434.114 186.457L444.619 191.618L448.792 181.04L460.929 187.759L460.919 187.758ZM401.448 167.052L406.219 156.531L396.252 150.015L389.857 160.193L401.448 167.052Z" fill="#D34E25"/>
<path d="M456.286 140.532L450.61 152.907L439.339 145.727L444.131 134.755L444.6 133.935L456.286 140.532Z" fill="#D34E25"/>
<path d="M444.725 248.063L430.899 251.782L390.224 226.837L393.63 217.594L361.343 198.224L366.487 188.109L314.028 156.317L335.339 111.647L348.442 106.856L327.038 152.522L346.752 164.359L379.343 183.918L373.485 194.036L406.64 213.798L402.017 222.737L444.725 248.063Z" fill="#130F09"/>
<path d="M444.6 133.935L444.131 134.755L439.339 145.727L428.581 138.866L422.751 150.303L390.78 131.957L395.913 120.344L406.65 126.47L412.414 115.74L444.6 133.935Z" fill="#37542C"/>
<path d="M450.431 66.0835L438.884 88.3955L428.857 82.3056L439.57 59.7851L450.431 66.0835Z" fill="#37542C"/>
<path d="M439.57 59.7853L428.857 82.3058L419.096 76.3814L413.093 87.1995L380.241 67.9677L386.078 56.3506L396.336 61.8996L401.628 52.0294L412.966 58.6939L422.383 64.2145L427.716 54.1172C427.741 54.0692 427.708 53.9958 427.658 53.9912L428.147 53.1631L439.559 59.7943L439.57 59.7853Z" fill="#D0CFB7"/>
<path d="M396.185 92.5184L390.875 103.552L379.237 96.97L385.057 85.8535L374.411 79.1935L380.241 67.9675L413.094 87.1994L419.097 76.3812L428.858 82.3056L423.705 93.163L433.263 99.641L428.473 110.161L396.185 92.5184Z" fill="#37542C"/>
<path d="M427.668 53.9818C427.718 53.9865 427.752 54.0599 427.727 54.1078L422.394 64.2052L412.977 58.6846L413.001 58.6366L413.711 57.2768L413.892 57.3841L427.628 53.9881C427.628 53.9881 427.649 53.97 427.669 53.9719L427.668 53.9818Z" fill="#130F09"/>
<path d="M428.628 25.0357L423.757 35.5579L413.006 29.5912L407.624 40.7486L407.408 41.1202L386.783 29.1481L397.495 7.1799L428.628 25.0357Z" fill="#D0CFB7"/>
<path d="M400.852 109.195L412.413 115.74L406.649 126.47L395.913 120.344L400.852 109.195Z" fill="#D34E25"/>
<path d="M407.408 41.1199L418.744 47.7039L413.701 57.276L412.991 58.6358L412.967 58.6837L401.627 52.0292L396.325 61.8985L386.077 56.3504L380.24 67.9675L370.55 62.4715L386.783 29.1479L407.408 41.1199Z" fill="#37542C"/>
<path d="M406.219 156.53L401.448 167.052L389.857 160.193L396.252 150.014L406.219 156.53Z" fill="#37542C"/>
<path d="M390.874 103.552L400.852 109.195L395.913 120.344L386.559 115.01L385.579 114.527L390.874 103.552Z" fill="#37542C"/>
<path d="M390.874 103.552L385.58 114.527L374.81 136.901L366.248 131.692L366.854 130.684L377.55 108.021L367.035 100.068L371.919 89.5165L361.695 83.5991L367.036 72.3474L357.793 66.7928L385.552 11.1654L397.495 7.17988L386.783 29.1481L370.55 62.4717L380.241 67.9677L374.41 79.1936L385.057 85.8536L379.236 96.9701L390.874 103.552Z" fill="#130F09"/>
<path d="M385.138 143.2L379.886 154.259L369.712 147.483L374.81 136.901L385.138 143.2Z" fill="#37542C"/>
<path d="M364.196 130.435L346.753 164.359L327.039 152.522L348.443 106.856L358.609 113.391L353.06 123.649L364.196 130.435Z" fill="#37542C"/>
<path d="M397.495 7.17986L428.628 25.0356L423.757 35.5579L444.912 48.0917L450.378 37.5447L504.146 69.1875L499.059 79.8704L509.802 86.4591L504.428 97.4264L498.785 108.901L487.822 131.197L482.672 141.703L472.279 136.091L466.722 146.439L456.286 140.532L444.6 133.935L412.414 115.74L400.853 109.195L390.875 103.552L379.237 96.9701L385.057 85.8536L374.411 79.1936L380.241 67.9676L370.551 62.4717L386.783 29.1481L397.495 7.17986Z" stroke="#130F09" stroke-miterlimit="10"/>
<path d="M466.722 146.439L467.549 146.938L508.979 172.717L504.046 182.832L514.934 190.016L509.101 201.383L509.085 201.442" stroke="#130F09" stroke-miterlimit="10"/>
<path d="M374.81 136.901L366.248 131.692L364.196 130.435L353.06 123.649L358.609 113.391L348.443 106.856L327.039 152.522L346.753 164.359L379.343 183.917L373.486 194.036L406.64 213.798L402.018 222.737L444.726 248.063L449.306 238.819L455.285 226.753L444.308 220.303L449.842 209.461L456.455 196.521L460.92 187.758L482.215 199.763L492.739 205.688L498.125 195.023L509.101 201.383L519.495 207.407L508.623 229.912L498.582 224.193L493.551 234.067L482.708 228.323L471.635 222.467L476.925 211.12L482.215 199.763L482.591 198.964" stroke="#130F09" stroke-miterlimit="10"/>
<path d="M374.81 136.901L369.712 147.483L379.886 154.259L385.138 143.2L374.81 136.901Z" stroke="#130F09" stroke-miterlimit="10"/>
<path d="M396.521 91.8165L396.184 92.5182L390.874 103.552L385.579 114.527L374.81 136.901" stroke="#130F09" stroke-miterlimit="10"/>
<path d="M449.841 209.461L450.343 209.78L460.233 215.826L466.295 204.813L476.924 211.12L487.838 217.604L482.707 228.323L477.428 239.349L487.576 246.073L477.218 267.05L466.23 261.041L471.189 250.537L449.305 238.819" stroke="#130F09" stroke-miterlimit="10"/>
<path d="M450.58 65.7762L450.431 66.0837L438.884 88.3956L428.857 82.3058L419.096 76.3814L413.093 87.1995L380.241 67.9677L386.078 56.3506L396.336 61.8996L401.627 52.0294L412.966 58.6939L422.383 64.2145L427.716 54.1172C427.741 54.0692 427.708 53.9958 427.658 53.9912C427.638 53.9893 427.636 54.0092 427.616 54.0073L413.88 57.4034" stroke="#130F09" stroke-miterlimit="10"/>
<path d="M418.781 47.6371L418.745 47.704L413.702 57.2761L412.992 58.6359" stroke="#130F09" stroke-miterlimit="10"/>
<path d="M386.783 29.1479L407.408 41.12L418.745 47.7039L428.148 53.153L439.57 59.7851L450.431 66.0835L471.894 78.5457L504.428 97.4263L504.474 97.4708" stroke="#130F09" stroke-miterlimit="10"/>
<path d="M471.894 78.5455L465.961 88.9383L477.834 96.4361L471.597 107.614L461.005 101.441L455.249 111.871L477.269 124.927L487.822 131.197L498.318 137.421L509.93 115.597L498.785 108.901L487.467 102.118L477.269 124.927L472.279 136.091" stroke="#130F09" stroke-miterlimit="10"/>
<path d="M439.57 59.785L428.857 82.3055L423.704 93.163L433.263 99.6409L428.473 110.161L396.185 92.5183" stroke="#130F09" stroke-miterlimit="10"/>
<path d="M386.559 115.01L395.913 120.344L406.65 126.47L412.414 115.74" stroke="#130F09" stroke-miterlimit="10"/>
<path d="M400.852 109.195L395.913 120.344L390.78 131.956L422.751 150.302L428.581 138.865L439.339 145.727L450.609 152.907L456.286 140.532" stroke="#130F09" stroke-miterlimit="10"/>
<path d="M444.131 134.755L439.339 145.727L429.409 168.461L439.223 174.571L434.104 186.466L444.609 191.626L448.783 181.039L460.92 187.758" stroke="#130F09" stroke-miterlimit="10"/>
<path d="M396.252 150.014L406.219 156.53L401.448 167.052L389.857 160.193L396.252 150.014Z" stroke="#130F09" stroke-miterlimit="10"/>
<path d="M364.196 130.435L346.752 164.359" stroke="#130F09" stroke-miterlimit="10"/>
<path d="M423.757 35.5579L413.005 29.5911L407.623 40.7485" stroke="#130F09" stroke-miterlimit="10"/>
<path d="M397.495 7.17988L385.552 11.1654L357.793 66.7928L367.036 72.3474L361.695 83.5991L371.919 89.5165L367.035 100.068L377.55 108.021L366.854 130.684" stroke="#130F09" stroke-miterlimit="10"/>
<path d="M348.442 106.856L335.339 111.647L314.028 156.317L366.487 188.109L361.343 198.224L393.63 217.594L390.224 226.837L430.899 251.782L444.725 248.063L458.088 255.318L453.802 263.876L464.631 271.277L477.253 267.867" stroke="#130F09" stroke-miterlimit="10"/>
<path d="M468.711 203.472L466.138 204.356L450.344 209.78" stroke="#130F09" stroke-miterlimit="10"/>
<path d="M456.454 196.521L468.868 203.185L469.527 203.548" stroke="#130F09" stroke-miterlimit="10"/>
<path d="M467.549 146.938L482.834 142.221L498.318 137.421" stroke="#130F09" stroke-miterlimit="10"/>
<path d="M508.792 230.25L508.73 230.264L493.71 234.614L477.429 239.349" stroke="#130F09" stroke-miterlimit="10"/>
</g>
<g clip-path="url(#clip2_148_377)">
<path d="M159.944 365.041L186.365 450.243L172.1 459.105L145.084 374.892L135.351 376.878L125.634 345.76L116.649 347.319L113.375 336.831L103.244 338.876L100.124 328.826L80.5732 333.216L77.2582 322.51L38.6379 331.147L38.4855 330.939L50.2577 322.482L90.6677 312.651L94.0288 323.256L113.956 319.01L116.615 328.903L127.815 326.589L130.873 337.376L139.977 336.041L149.762 366.478L159.944 365.041Z" fill="#130F09"/>
<path d="M40.6777 337.41L38.6371 331.147L77.2575 322.51L80.5725 333.216L100.123 328.826L103.243 338.876L113.375 336.831L116.648 347.319L125.633 345.759L135.35 376.878L145.083 374.892L172.1 459.105L162.132 461.913L158.258 450.898L149.151 453.019L148.54 451.289L145.495 442.679L136.183 444.841L139.297 455.56L129.838 457.999L133.071 468.435L133.075 468.47L113.159 473.132L106.354 451.777L102.793 452.604L87.008 456.273L93.7261 477.441L74.11 482.026L70.827 471.288L60.7998 473.622L60.5028 472.482L58.0107 463.019L47.8413 465.617L51.5136 476.268L41.8056 478.294L44.7761 488.824L44.7959 488.885L34.9339 491.196L8.99557 406.157L19.1912 403.834L22.4963 414.73L31.8285 412.713L35.0059 423.147L54.9411 418.692L51.6949 408.049L61.5684 405.785L52.0003 374.179L42.1067 376.306L38.8421 365.615L18.6094 370.168L17.6232 366.699L15.4696 359.104L25.2371 356.899L24.264 353.714L22.1603 346.789L42.2643 342.276L40.6777 337.41ZM119.73 392.361L110.089 361.013L100.27 363.125L96.8025 352.642L77.4736 357.241L80.8979 367.631L71.0382 369.747L74.3578 380.064L81.1868 401.298L90.7332 399.114L90.7582 399.23L93.9975 409.728L113.444 405.264L109.994 394.828L119.73 392.361Z" fill="#D34E25"/>
<path d="M145.495 442.679L148.54 451.289L147.926 451.508L145.11 452.319L147.266 460.158L133.349 468.346L133.071 468.435L129.838 457.999L139.297 455.559L136.183 444.841L145.495 442.679Z" fill="#130F09"/>
<path d="M110.089 361.013L119.73 392.361L109.995 394.827L113.444 405.264L93.9979 409.728L90.7586 399.23L90.7336 399.114L100.348 396.916L93.6652 375.675L74.3581 380.063L71.0385 369.747L80.8982 367.631L77.474 357.241L96.8028 352.642L100.271 363.125L110.089 361.013Z" fill="#D0CFB7"/>
<path d="M102.865 452.917L107.827 468.832L93.7263 477.441L87.0082 456.273L102.793 452.604L102.865 452.917Z" fill="#130F09"/>
<path d="M93.6649 375.675L100.348 396.916L90.7333 399.114L81.1869 401.297L74.3579 380.063L93.6649 375.675Z" fill="#37542C"/>
<path d="M52.0004 374.179L61.5685 405.785L51.695 408.048L54.9412 418.692L35.006 423.147L31.8286 412.713L42.0749 410.483L35.466 389.144L16.0767 393.547L16.0227 393.566L12.816 383.19L13.0262 383.129L22.0406 380.849L18.6095 370.168L38.8422 365.615L42.1068 376.305L52.0004 374.179Z" fill="#D0CFB7"/>
<path d="M60.5034 472.481L60.0138 472.611L56.696 473.867L59.0738 480.815L45.2795 488.686L44.7767 488.824L41.8062 478.293L51.5142 476.268L47.8419 465.617L58.0112 463.018L60.5034 472.481Z" fill="#130F09"/>
<path d="M40.6782 337.41L42.2648 342.276L22.1608 346.789L34.8779 338.59L40.6782 337.41Z" fill="#130F09"/>
<path d="M35.4662 389.144L42.0751 410.483L31.8288 412.712L22.4966 414.73L19.1915 403.834L18.1414 400.427L16.0229 393.566L16.0769 393.547L35.4662 389.144Z" fill="#37542C"/>
<path d="M24.2646 353.714L25.2377 356.899L15.4701 359.104L23.824 353.847L24.2646 353.714Z" fill="#130F09"/>
<path d="M18.61 370.168L22.0411 380.849L13.0267 383.128L12.8164 383.19L9.43635 372.239L18.61 370.168Z" fill="#D34E25"/>
<path d="M17.6235 366.699L18.6098 370.168L9.43613 372.239L17.2363 366.805L17.6235 366.699Z" fill="#130F09"/>
<path d="M18.1417 400.427L19.1917 403.834L8.99612 406.157L17.3421 400.671L18.1417 400.427Z" fill="#130F09"/>
<path d="M38.6371 331.147L77.2575 322.51L80.5725 333.216L100.123 328.826L103.243 338.876L113.375 336.831L116.648 347.319L125.633 345.759L135.35 376.878L145.083 374.892L172.1 459.105L162.132 461.913L158.258 450.898L149.151 453.019L148.54 451.289L145.495 442.679L136.183 444.841L139.297 455.56L129.838 457.999L133.071 468.435L133.082 468.469L113.159 473.132L106.354 451.777L102.793 452.604L87.008 456.273L93.7261 477.441L74.11 482.026L70.827 471.288L60.7998 473.622L60.5028 472.482L58.0107 463.019L47.8413 465.617L51.5136 476.268L41.8056 478.294L44.7761 488.824L44.7959 488.885L34.9339 491.196L8.99557 406.157L19.1912 403.834L18.1412 400.427L16.0226 393.566L12.8159 383.19L9.43582 372.24L18.6094 370.168L17.6232 366.699L15.4696 359.104L25.2371 356.899L24.264 353.714L22.1603 346.789L42.2643 342.276L40.6777 337.41L38.6371 331.147Z" stroke="#130F09" stroke-width="2" stroke-miterlimit="10"/>
<path d="M13.0269 383.128L22.0413 380.849L18.6102 370.168L38.8428 365.615L42.1074 376.305L52.001 374.179L61.5692 405.785L51.6957 408.048L54.9419 418.692L35.0067 423.147L31.8292 412.712L22.497 414.73L19.1919 403.834" stroke="#130F09" stroke-width="2" stroke-miterlimit="10"/>
<path d="M16.0773 393.547L35.4666 389.144L42.0755 410.483L31.8292 412.712" stroke="#130F09" stroke-width="2" stroke-miterlimit="10"/>
<path d="M74.3581 380.063L93.6652 375.675L100.348 396.916L90.7336 399.114L81.1871 401.297L74.3581 380.063ZM74.3581 380.063L71.0385 369.747L80.8982 367.631L77.474 357.241L96.8028 352.642L100.271 363.125L110.089 361.013L119.73 392.361L109.995 394.827L113.444 405.264L93.9979 409.728L90.7586 399.23" stroke="#130F09" stroke-width="2" stroke-miterlimit="10"/>
<path d="M38.1397 331.188L38.4855 330.939L50.2577 322.482L90.6677 312.651L94.0288 323.255L113.956 319.01L116.615 328.902L127.815 326.589L130.873 337.375L139.977 336.041L149.762 366.478L159.944 365.041L186.365 450.243L172.1 459.105" stroke="#130F09" stroke-width="2"/>
<path d="M133.349 468.346L147.266 460.158L145.11 452.319L147.926 451.508" stroke="#130F09" stroke-width="2"/>
<path d="M45.2788 488.686L59.0731 480.815L56.6953 473.867L60.0131 472.612" stroke="#130F09" stroke-width="2" stroke-miterlimit="10"/>
<path d="M93.7264 477.441L107.827 468.832L102.865 452.917" stroke="#130F09" stroke-width="2" stroke-miterlimit="10"/>
<path d="M8.99596 406.157L17.342 400.671" stroke="#130F09" stroke-width="2" stroke-miterlimit="10"/>
<path d="M9.43639 372.24L17.2365 366.806" stroke="#130F09" stroke-width="2" stroke-miterlimit="10"/>
<path d="M15.4694 359.103L23.8233 353.846" stroke="#130F09" stroke-width="2" stroke-miterlimit="10"/>
<path d="M22.1608 346.789L34.8779 338.59L40.6782 337.41L40.7059 337.408" stroke="#130F09" stroke-width="2" stroke-miterlimit="10"/>
</g>
<defs>
<clipPath id="clip0_148_377">
<rect width="350" height="260" fill="white" transform="translate(151 150)"/>
</clipPath>
<clipPath id="clip1_148_377">
<rect width="210.59" height="257.93" fill="white" transform="translate(328.012) rotate(5.34154)"/>
</clipPath>
<clipPath id="clip2_148_377">
<rect width="174" height="174" fill="white" transform="translate(0 320.518) rotate(-5.44723)"/>
</clipPath>
</defs>
</svg>
