<svg width="127" height="72" viewBox="0 0 127 72" fill="none" xmlns="http://www.w3.org/2000/svg">
<path d="M11.04 19.304V39.464C11.04 41.48 11.536 43.032 12.528 44.12C13.52 45.208 14.976 45.752 16.896 45.752C18.816 45.752 20.288 45.208 21.312 44.12C22.336 43.032 22.848 41.48 22.848 39.464V19.304H31.056V39.416C31.056 42.424 30.416 44.968 29.136 47.048C27.856 49.128 26.128 50.696 23.952 51.752C21.808 52.808 19.408 53.336 16.752 53.336C14.096 53.336 11.712 52.824 9.6 51.8C7.52 50.744 5.872 49.176 4.656 47.096C3.44 44.984 2.832 42.424 2.832 39.416V19.304H11.04ZM51.0758 47.048H38.4998L36.4838 53H27.8918L40.0838 19.304H49.5878L61.7798 53H53.0918L51.0758 47.048ZM48.9638 40.712L44.7878 28.376L40.6598 40.712H48.9638ZM75.9544 48.152H75.5224C75.1064 48.888 74.6744 49.592 74.2264 50.264C73.7784 50.904 73.2664 51.48 72.6904 51.992C72.1464 52.472 71.5064 52.856 70.7704 53.144C70.0664 53.432 69.2344 53.576 68.2744 53.576C65.5224 53.576 63.3464 52.536 61.7464 50.456C60.1784 48.376 59.3944 45.304 59.3944 41.24C59.3944 38.072 59.7144 35.128 60.3544 32.408C61.0264 29.656 62.0024 27.288 63.2824 25.304C64.5944 23.32 66.2104 21.768 68.1304 20.648C70.0824 19.496 72.3384 18.92 74.8984 18.92C76.6264 18.92 78.1304 19.16 79.4104 19.64C80.6904 20.12 81.7624 20.808 82.6264 21.704C83.4904 22.568 84.1624 23.608 84.6424 24.824C85.1224 26.04 85.4104 27.368 85.5064 28.808L78.6424 30.152C78.5784 29.448 78.4664 28.76 78.3064 28.088C78.1784 27.416 77.9384 26.84 77.5864 26.36C77.2664 25.848 76.8344 25.448 76.2904 25.16C75.7784 24.84 75.1064 24.68 74.2744 24.68C72.4504 24.68 71.0264 25.448 70.0024 26.984C69.0104 28.52 68.2904 30.584 67.8424 33.176L67.0264 38.072C66.9304 38.648 66.8344 39.336 66.7384 40.136C66.6744 40.904 66.6424 41.608 66.6424 42.248C66.6424 43.944 66.9944 45.304 67.6984 46.328C68.4344 47.32 69.5704 47.816 71.1064 47.816C72.8024 47.816 74.1304 47.288 75.0904 46.232C76.0504 45.176 76.6584 43.928 76.9144 42.488L77.2984 40.184H71.3944L72.2104 35.144H84.4024L81.4264 53H75.1384L75.9544 48.152ZM104.688 47.048H92.1116L90.0956 53H81.5036L93.6956 19.304H103.2L115.392 53H106.704L104.688 47.048ZM102.576 40.712L98.3996 28.376L94.2716 40.712H102.576ZM121.214 53.288C120.382 53.288 119.678 53 119.102 52.424C118.526 51.848 118.238 51.144 118.238 50.312C118.238 49.48 118.526 48.776 119.102 48.2C119.678 47.624 120.382 47.336 121.214 47.336C122.014 47.336 122.686 47.624 123.23 48.2C123.806 48.776 124.094 49.48 124.094 50.312C124.094 51.144 123.806 51.848 123.23 52.424C122.686 53 122.014 53.288 121.214 53.288Z" fill="#130F09"/>
</svg>
