<svg width="23" height="26" viewBox="0 0 23 26" fill="none" xmlns="http://www.w3.org/2000/svg">
<g clip-path="url(#clip0_66_566)">
<path d="M8.97206 15.5587C9.89446 15.9463 10.3259 17.0134 9.94405 17.9446C9.5622 18.8758 8.50591 19.3137 7.58351 18.9211L6.17016 18.3271C6.41812 18.8607 6.85452 19.3036 7.42978 19.5452C8.67948 20.0737 10.1127 19.4747 10.6334 18.2113C10.8863 17.6023 10.8863 16.9278 10.6383 16.3137C10.3854 15.7047 9.91926 15.2265 9.31424 14.9698C8.71419 14.7181 8.07446 14.7282 7.50912 14.9446L8.97206 15.5587ZM22.9766 4.83228C22.9766 3.05546 21.5533 1.61084 19.8028 1.61084H3.9336C2.18303 1.61084 0.759766 3.05546 0.759766 4.83228V12.1158L6.5421 14.5369C7.13719 14.1241 7.84139 13.9278 8.56046 13.9681L11.3078 9.93122V9.87585C11.3078 7.4497 13.2567 5.47154 15.652 5.47154C18.0472 5.47154 19.9962 7.4497 19.9962 9.87585C19.9962 12.3523 17.9679 14.3406 15.5528 14.2802L11.6351 17.114C11.7145 19.0519 10.192 20.5771 8.37697 20.5771C6.79997 20.5771 5.47589 19.4345 5.17834 17.9244L0.759766 16.0671V20.9395C0.759766 22.7163 2.18303 24.1609 3.9336 24.1609H19.8028C21.5533 24.1609 22.9766 22.7163 22.9766 20.9395V4.83228ZM12.7559 9.87585C12.7559 10.6555 13.061 11.4032 13.6041 11.9544C14.1473 12.5057 14.8839 12.8154 15.652 12.8154C16.4201 12.8154 17.1567 12.5057 17.6999 11.9544C18.243 11.4032 18.5481 10.6555 18.5481 9.87585C18.5481 9.09623 18.243 8.34854 17.6999 7.79727C17.1567 7.24599 16.4201 6.93629 15.652 6.93629C14.8839 6.93629 14.1473 7.24599 13.6041 7.79727C13.061 8.34854 12.7559 9.09623 12.7559 9.87585ZM13.4799 9.87082C13.4799 9.28477 13.7093 8.72272 14.1175 8.30832C14.5258 7.89392 15.0796 7.66111 15.657 7.66111C16.2343 7.66111 16.7881 7.89392 17.1964 8.30832C17.6046 8.72272 17.834 9.28477 17.834 9.87082C17.834 10.4569 17.6046 11.0189 17.1964 11.4333C16.7881 11.8477 16.2343 12.0805 15.657 12.0805C15.0796 12.0805 14.5258 11.8477 14.1175 11.4333C13.7093 11.0189 13.4799 10.4569 13.4799 9.87082Z" fill="#D9D9D9"/>
</g>
<defs>
<clipPath id="clip0_66_566">
<rect width="22.2168" height="25.7715" fill="white" transform="translate(0.759766)"/>
</clipPath>
</defs>
</svg>
