<svg width="62" height="79" viewBox="0 0 62 79" fill="none" xmlns="http://www.w3.org/2000/svg">
<path d="M59.02 6L58.17 5.59C53.52 3.32 48.57 1.78 43.07 0.89C42.78 0.84 42.49 0.8 42.2 0.76C41.61 0.67 41.02 0.6 40.43 0.53C37.44 0.17 34.28 0 30.92 0C20.16 0 11.5 1.78 3.66 5.59L2.81 6L0 7.36V10.49V39.07V39.63C0 39.75 0 39.88 0 40.01C0 40.04 0 40.06 0 40.09C0 40.22 2.29105e-07 40.35 0.0100002 40.49C0.0100002 40.51 0.0100002 40.53 0.0100002 40.56C0.0100002 40.69 0.0200005 40.83 0.0200005 40.97C0.0200005 40.99 0.0200005 41 0.0200005 41.01C0.0300005 41.16 0.0300009 41.31 0.0400009 41.47C0.0400009 41.5 0.0400009 41.52 0.0400009 41.55C0.0500009 41.71 0.0599997 41.88 0.0699997 42.05C0.0799997 42.22 0.0900004 42.39 0.1 42.57C0.1 42.59 0.1 42.61 0.1 42.64C0.11 42.82 0.129999 42.99 0.139999 43.18C0.139999 43.2 0.14 43.22 0.15 43.24C0.17 43.43 0.180001 43.62 0.200001 43.81C0.220001 44 0.24 44.19 0.26 44.38C0.26 44.41 0.27 44.44 0.27 44.47C0.29 44.66 0.32 44.86 0.34 45.06C0.34 45.07 0.34 45.08 0.34 45.09C0.36 45.28 0.39 45.48 0.42 45.68C0.42 45.71 0.43 45.74 0.43 45.76C0.46 45.96 0.49 46.17 0.52 46.37C0.52 46.4 0.530001 46.43 0.530001 46.46C0.560001 46.66 0.599999 46.86 0.629999 47.07C0.629999 47.08 0.629999 47.09 0.639999 47.11C0.679999 47.32 0.72 47.53 0.76 47.75C0.77 47.79 0.780001 47.83 0.780001 47.87C0.820001 48.09 0.86 48.3 0.91 48.52C0.91 48.53 0.92 48.55 0.92 48.56C0.96 48.77 1.01 48.98 1.06 49.19C1.07 49.23 1.08 49.27 1.09 49.31C1.14 49.53 1.19 49.75 1.25 49.97C1.26 50.01 1.27 50.05 1.28 50.08C1.33 50.29 1.39 50.5 1.44 50.72C1.45 50.74 1.45 50.76 1.46 50.79C1.52 51.02 1.58 51.24 1.65 51.47C1.66 51.52 1.68 51.56 1.69 51.61C1.76 51.84 1.83 52.07 1.9 52.3C1.9 52.32 1.91 52.33 1.92 52.35C1.99 52.57 2.06 52.79 2.13 53.01C2.15 53.06 2.16 53.1 2.18 53.15C2.26 53.38 2.34 53.61 2.42 53.84C2.44 53.88 2.45 53.93 2.47 53.97C2.55 54.18 2.63 54.4 2.71 54.62C2.72 54.65 2.73 54.68 2.74 54.71C2.83 54.94 2.92 55.18 3.02 55.41C3.04 55.46 3.06 55.51 3.08 55.56C3.18 55.8 3.28 56.03 3.38 56.27C3.39 56.28 3.39 56.3 3.4 56.31C3.5 56.54 3.6 56.76 3.71 56.99C3.73 57.04 3.76 57.09 3.78 57.14C3.89 57.37 4 57.6 4.12 57.84C4.14 57.88 4.16 57.93 4.19 57.97C4.3 58.18 4.41 58.4 4.52 58.61C4.54 58.64 4.56 58.68 4.57 58.71C4.69 58.94 4.82 59.17 4.95 59.41C4.98 59.46 5.01 59.51 5.04 59.56C5.17 59.8 5.31 60.03 5.45 60.26C5.46 60.27 5.46 60.28 5.47 60.29C5.61 60.52 5.75 60.74 5.89 60.96C5.92 61.01 5.95 61.06 5.99 61.11C6.14 61.34 6.29 61.57 6.44 61.79C6.47 61.83 6.5 61.87 6.52 61.91C6.66 62.12 6.81 62.32 6.96 62.53C6.99 62.57 7.01 62.6 7.04 62.64C7.2 62.86 7.37 63.09 7.55 63.31C7.59 63.36 7.63 63.41 7.67 63.46C7.85 63.69 8.03 63.91 8.21 64.14C8.21 64.15 8.22 64.15 8.23 64.16C8.41 64.38 8.6 64.6 8.79 64.81C8.83 64.86 8.87 64.9 8.91 64.95C9.1 65.17 9.3 65.38 9.5 65.59C9.53 65.63 9.57 65.66 9.61 65.7C9.79 65.89 9.98 66.09 10.17 66.28C10.2 66.31 10.24 66.35 10.27 66.38C10.48 66.59 10.7 66.79 10.92 67C10.97 67.04 11.02 67.09 11.07 67.13C11.3 67.34 11.53 67.55 11.76 67.75C19.8 74.69 27.91 77.59 28.81 77.9C28.81 77.9 30.77 78.62 30.91 78.62C31.06 78.62 33.01 77.9 33.01 77.9C33.28 77.81 34.18 77.49 35.53 76.9C35.67 76.84 35.82 76.77 35.97 76.71C36.12 76.64 36.28 76.57 36.44 76.5C36.52 76.46 36.6 76.43 36.68 76.39C36.85 76.31 37.01 76.23 37.19 76.15C37.28 76.11 37.36 76.07 37.45 76.02C37.63 75.93 37.81 75.84 37.99 75.75C38.18 75.66 38.36 75.56 38.56 75.46C39.24 75.11 39.95 74.73 40.71 74.3C43.51 72.72 46.79 70.56 50.06 67.74C50.3 67.54 50.52 67.33 50.75 67.12C50.8 67.07 50.85 67.03 50.9 66.98C51.12 66.78 51.33 66.57 51.54 66.36C51.58 66.32 51.61 66.29 51.65 66.25C51.84 66.06 52.03 65.87 52.21 65.68C52.25 65.64 52.28 65.61 52.32 65.57C52.52 65.36 52.72 65.14 52.91 64.93C52.95 64.88 52.99 64.83 53.04 64.79C53.23 64.58 53.42 64.36 53.6 64.14C53.61 64.13 53.61 64.13 53.62 64.12C53.81 63.9 53.99 63.67 54.16 63.45C54.2 63.4 54.24 63.35 54.28 63.3C54.45 63.08 54.62 62.86 54.78 62.63C54.81 62.59 54.83 62.56 54.86 62.52C55.01 62.32 55.15 62.11 55.3 61.9C55.33 61.86 55.36 61.82 55.39 61.77C55.54 61.54 55.7 61.32 55.84 61.09C55.87 61.04 55.91 60.99 55.94 60.94C56.08 60.72 56.22 60.49 56.36 60.27C56.37 60.26 56.38 60.24 56.38 60.23C56.52 60 56.66 59.76 56.79 59.53C56.82 59.48 56.85 59.42 56.88 59.37C57.01 59.14 57.14 58.91 57.26 58.68C57.28 58.65 57.3 58.61 57.32 58.58C57.43 58.37 57.54 58.16 57.65 57.94C57.67 57.9 57.7 57.85 57.72 57.81C57.84 57.58 57.95 57.35 58.06 57.12C58.08 57.07 58.11 57.02 58.13 56.97C58.23 56.75 58.34 56.52 58.43 56.3C58.44 56.28 58.45 56.27 58.45 56.25C58.55 56.01 58.65 55.78 58.75 55.54C58.77 55.49 58.79 55.43 58.81 55.38C58.9 55.15 59 54.92 59.09 54.68C59.1 54.65 59.11 54.62 59.13 54.59C59.21 54.38 59.29 54.16 59.37 53.95C59.39 53.91 59.4 53.86 59.42 53.82C59.5 53.59 59.58 53.36 59.66 53.13C59.68 53.08 59.69 53.04 59.71 52.99C59.78 52.77 59.85 52.55 59.92 52.33C59.93 52.31 59.93 52.3 59.94 52.28C60.01 52.05 60.08 51.82 60.15 51.59C60.16 51.54 60.18 51.49 60.19 51.44C60.26 51.21 60.32 50.99 60.38 50.76C60.39 50.74 60.39 50.71 60.4 50.69C60.46 50.48 60.51 50.27 60.56 50.06C60.57 50.02 60.58 49.98 60.59 49.94C60.64 49.72 60.7 49.5 60.75 49.28C60.76 49.24 60.77 49.2 60.78 49.16C60.83 48.95 60.87 48.74 60.92 48.53C60.92 48.51 60.93 48.5 60.93 48.48C60.98 48.26 61.02 48.04 61.06 47.83C61.07 47.79 61.08 47.75 61.08 47.71C61.12 47.5 61.16 47.28 61.2 47.07C61.2 47.06 61.2 47.05 61.21 47.03C61.25 46.83 61.28 46.62 61.31 46.42C61.32 46.39 61.32 46.36 61.33 46.32C61.36 46.11 61.39 45.91 61.42 45.71C61.42 45.68 61.43 45.65 61.43 45.62C61.46 45.42 61.48 45.23 61.51 45.03C61.51 45.02 61.51 45.01 61.51 45C61.54 44.8 61.56 44.6 61.58 44.41C61.58 44.38 61.59 44.35 61.59 44.32C61.61 44.13 61.63 43.93 61.65 43.74C61.67 43.55 61.69 43.36 61.7 43.17C61.7 43.15 61.7 43.13 61.71 43.11C61.73 42.93 61.74 42.75 61.75 42.57C61.75 42.55 61.75 42.53 61.75 42.51C61.77 42.16 61.79 41.82 61.81 41.49C61.81 41.46 61.81 41.44 61.81 41.41C61.82 41.25 61.82 41.1 61.83 40.95C61.83 40.94 61.83 40.92 61.83 40.91C61.83 40.77 61.84 40.63 61.84 40.5C61.84 40.48 61.84 40.46 61.84 40.44C61.84 40.3 61.85 40.17 61.85 40.04C61.85 40.01 61.85 39.99 61.85 39.96C61.85 39.83 61.85 39.7 61.85 39.58V39.02V10.49V7.37L59.02 6ZM19.01 9.28H20.62V7.84L21.27 7.58C22.72 7 24.45 6.69 26.28 6.69C27.96 6.69 29.54 6.96 30.91 7.45C32.28 6.96 33.86 6.69 35.54 6.69C37.37 6.69 39.11 7 40.55 7.58L41.2 7.84V9.28H42.81V20.44H19.01V9.28ZM16.61 65.27C16.08 64.85 15.56 64.42 15.03 63.96C14.84 63.79 14.65 63.63 14.47 63.46C8.13 57.65 5.99 49.87 5.3 44.36C6.75 44.19 8.17 43.74 9.5 43C11.7 41.77 14.23 41.77 16.44 43C19.89 44.92 24.01 44.92 27.46 43C29.66 41.77 32.19 41.77 34.4 43C37.85 44.92 41.97 44.92 45.42 43C47.62 41.77 50.15 41.77 52.36 43C53.69 43.74 55.11 44.19 56.56 44.36C55.87 49.87 53.73 57.65 47.39 63.46C47.21 63.63 47.02 63.8 46.83 63.96C46.3 64.42 45.76 64.86 45.23 65.29C44.75 65.67 44.26 66.04 43.79 66.4L40.69 63.3L39.59 64.4V67.28L40.77 68.46C35.72 71.68 31.67 73.08 31.43 73.16L30.94 73.33L30.45 73.16C30.22 73.08 26.16 71.68 21.11 68.46L22.29 67.28V64.4L21.19 63.3L18.09 66.4C17.59 66.04 17.1 65.66 16.61 65.27ZM56.84 39.63C56.84 39.8 56.84 39.99 56.84 40.18C56 40.05 55.17 39.78 54.39 39.34C50.94 37.42 46.82 37.42 43.37 39.34C41.17 40.57 38.64 40.57 36.43 39.34C32.98 37.42 28.86 37.42 25.41 39.34C23.21 40.57 20.68 40.57 18.47 39.34C15.02 37.42 10.9 37.42 7.45 39.34C6.66 39.78 5.84 40.06 5 40.18C5 39.99 5 39.8 5 39.63V36.03L12.81 28.06L20.17 35.48L30.92 24.43L41.67 35.48L49.03 28.06L56.84 36.03V39.63Z" fill="#275D38"/>
<path d="M30.92 50.52L27.65 47.25L26.54 48.35V51.23L30.92 55.6L35.29 51.23V48.35L34.18 47.25L30.92 50.52Z" fill="#275D38"/>
<path d="M30.92 58.54L27.65 55.27L26.54 56.37V59.26L28.37 61.08L30.92 63.63L33.46 61.08L35.29 59.26V56.37L34.18 55.27L30.92 58.54Z" fill="#275D38"/>
<path d="M30.92 66.5698L27.65 63.2998L26.54 64.3998V67.2798L28.37 69.1098L30.92 71.6498L33.46 69.1098L35.29 67.2798V64.3998L34.18 63.2998L30.92 66.5698Z" fill="#275D38"/>
<path d="M43.93 50.52L40.66 47.25L39.56 48.35V51.23L43.93 55.6L48.3 51.23V48.35L47.2 47.25L43.93 50.52Z" fill="#275D38"/>
<path d="M43.93 58.54L40.66 55.27L39.56 56.37V59.26L41.39 61.08L43.93 63.63L46.47 61.08L48.3 59.26V56.37L47.2 55.27L43.93 58.54Z" fill="#275D38"/>
<path d="M17.9 50.52L14.63 47.25L13.53 48.35V51.23L17.9 55.6L22.27 51.23V48.35L21.17 47.25L17.9 50.52Z" fill="#275D38"/>
<path d="M17.9 58.54L14.63 55.27L13.53 56.37V59.26L15.36 61.08L17.9 63.63L20.44 61.08L22.27 59.26V56.37L21.17 55.27L17.9 58.54Z" fill="#275D38"/>
<path d="M22.68 9.27008V17.8201C23.79 17.5401 25.01 17.3901 26.28 17.3901C27.55 17.3901 28.77 17.5401 29.88 17.8201V9.27008C27.75 8.60008 24.82 8.60008 22.68 9.27008Z" fill="#275D38"/>
<path d="M31.94 9.27008V17.8201C33.05 17.5401 34.27 17.3901 35.54 17.3901C36.81 17.3901 38.03 17.5401 39.14 17.8201V9.27008C37.01 8.60008 34.08 8.60008 31.94 9.27008Z" fill="#275D38"/>
</svg>
