<svg width="446" height="414" viewBox="0 0 446 414" fill="none" xmlns="http://www.w3.org/2000/svg">
<g clip-path="url(#clip0_197_668)">
<path d="M190.5 144L32 21L-260 118L-81.5 339L190.5 373.5L305.5 308.5L470 397.5L544.5 81L316.5 39L190.5 144Z" fill="#C59F2B" stroke="#130F09" stroke-width="5"/>
<path d="M-64.5 29V237.5L96 371.5L239.5 307L372.5 312.5L475.5 449L550 -47L166.5 146L-64.5 29Z" fill="#37542C" stroke="#130F09" stroke-width="5"/>
<path d="M13 109.5L-91.5 189L-32 377L130.5 308.5L290.5 347.5L354.5 303.5L451.5 308.5L447 76L252 39.5L185 157.5L13 109.5Z" fill="#D34E25" stroke="#130F09" stroke-width="5"/>
<path d="M333.999 35.5C374.868 35.5 407.999 68.6309 407.999 109.5C407.999 150.369 374.868 183.5 333.999 183.5C293.13 183.5 259.999 150.369 259.999 109.5C259.999 68.6309 293.13 35.5 333.999 35.5Z" fill="#D0CFB7" stroke="black" stroke-width="5"/>
<path d="M229.62 271.837L125.168 379.245L84.3753 235.082L229.62 271.837Z" fill="#D0CFB7" stroke="black" stroke-width="5"/>
</g>
<defs>
<clipPath id="clip0_197_668">
<rect width="447" height="414" fill="white"/>
</clipPath>
</defs>
</svg>
