<svg width="705" height="591" viewBox="0 0 705 591" fill="none" xmlns="http://www.w3.org/2000/svg">
<rect x="51" y="180" width="558.701" height="263.149" transform="rotate(4.37474 51 180)" fill="#37542C"/>
<path d="M49.5 197L51 180L210 191.5L520 179.5L527.5 179L606 250L600.5 334L605 453.5L590.5 454L588 485L308.5 463.5L163 469L31.5 436.5L41.5 291.5L38 197.5L49.5 197Z" stroke="black" stroke-width="5"/>
<rect x="37.9314" y="197.698" width="557" height="277" transform="rotate(-2.18072 37.9314 197.698)" fill="#C59F2B" stroke="black" stroke-width="2"/>
<g clip-path="url(#clip0_170_1409)">
<path d="M154.97 328.75L154.92 328.79C154.92 328.79 135.69 356.35 135.68 356.37C121.19 373.12 93.0798 362.59 93.1898 340.4C93.1998 340.38 100.5 278.93 100.5 278.9L100.6 278.04C101.41 250.23 131.34 231.46 156.68 244.16C168.22 244.18 194.92 244.15 207.58 244.16C209.36 244.19 210.23 244.12 210.92 244.17C210.78 244.57 211.19 321.77 210.78 322.69C209.68 322.67 199.64 322.74 198.56 322.69C193.09 342.53 165.85 346.58 154.98 328.75H154.97ZM175.4 332.18C184.1 332.25 191.43 325 191.42 316.25V316.07C191.6 304.92 179.39 296.9 169.26 301.37C153.22 308.22 157.99 332.02 175.4 332.18ZM168.39 288.13C168.39 282.81 168.31 275.75 168.31 270.44C168.31 269.23 166.88 268.4 165.62 268.4C164 268.4 152.71 268.41 149.85 268.4C149.85 265.37 149.85 258.95 149.85 255.47C149.85 253.36 149.57 251.41 147.38 251.41C142.47 251.41 135.03 251.45 129.85 251.45C127.4 251.45 127.65 253.89 127.65 256.52C127.65 259.53 127.67 265.67 127.65 268.4C124.88 268.41 118.33 268.39 115.31 268.4C114.09 268.43 113.56 268.44 112.57 268.44C111.44 268.44 110.28 269.5 110.28 270.61C110.28 272.88 110.29 283.45 110.29 288.4C110.29 289.72 111.82 290.61 113.02 290.61C113.96 290.61 124.79 290.59 127.65 290.61C127.66 293.45 127.64 300.41 127.65 303.67C127.71 306.08 127.04 309.13 130 309.62C131.49 309.71 140.81 309.62 144.82 309.65C146.11 309.61 146.7 309.77 147.81 309.55C149 309.32 149.87 308.04 149.85 306.93C149.86 306.16 149.85 293.99 149.85 290.61C153.31 290.6 161.84 290.6 164.09 290.6C166.22 290.6 168.39 290.34 168.39 288.13Z" fill="#130F09"/>
<path d="M186.029 316.25C186.179 323.61 177.919 328.99 171.269 325.95C160.699 321.43 163.929 305.57 175.399 305.54C181.149 305.49 186.019 310.31 186.029 316.08V316.25Z" fill="#130F09"/>
<path d="M158.6 281.83C158.72 283.46 157.68 285.17 156.04 285.61C154.36 285.96 152.48 285.69 150.7 285.77C148.25 286.03 146.92 283.65 145.52 282.06C143.12 279.13 145.74 276.93 147.58 274.74L147.66 274.65C148.56 273.68 149.76 273.39 151.08 273.47C152.05 273.47 153.76 273.48 154.77 273.47C156.52 273.38 158.25 274.64 158.53 276.42C158.69 277.67 158.55 279.98 158.6 281.83Z" fill="#130F09"/>
<path d="M145.32 267.85C145.58 270.3 143.2 271.63 141.61 273.03C138.68 275.43 136.48 272.81 134.29 270.97L134.21 270.89C133.23 269.99 132.95 268.78 133.03 267.47C133.02 266.5 133.03 264.79 133.03 263.78C132.93 262.03 134.19 260.3 135.98 260.02C137.22 259.86 139.53 260 141.38 259.95C143.02 259.83 144.72 260.87 145.16 262.51C145.51 264.19 145.24 266.07 145.32 267.85Z" fill="#130F09"/>
<path d="M144.141 288.3C145.111 289.2 145.401 290.41 145.321 291.72V295.41C145.421 297.16 144.161 298.9 142.371 299.17C141.121 299.33 138.821 299.19 136.961 299.24C135.331 299.36 133.631 298.32 133.191 296.68C132.841 295.01 133.111 293.12 133.031 291.34C132.761 288.9 135.141 287.56 136.741 286.16C139.661 283.76 141.861 286.38 144.061 288.22L144.141 288.3Z" fill="#130F09"/>
<path d="M132.559 277.18C134.959 280.11 132.329 282.31 130.489 284.51L130.419 284.59C129.519 285.56 128.309 285.85 126.999 285.77H123.299C121.549 285.86 119.819 284.61 119.549 282.82C119.389 281.57 119.519 279.27 119.479 277.41C119.359 275.78 120.399 274.08 122.039 273.63C123.709 273.28 125.599 273.56 127.369 273.47C129.819 273.21 131.149 275.59 132.559 277.18Z" fill="#130F09"/>
<path d="M212.88 228.1C168.43 190.32 111.88 213.59 111.88 213.59L58.4805 366.18C77.1205 366.92 109.28 370.59 144.74 387.77C178.56 404.15 200.72 425.72 212.89 439.48V228.685L212.88 228.1Z" stroke="#130F09" stroke-width="5" stroke-miterlimit="10"/>
<path d="M210.119 436.42C199.579 425.1 177.789 404.64 144.429 392.54C108.679 379.58 78.1791 382.95 63.5391 385.61L70.7391 368.16" stroke="#130F09" stroke-width="5" stroke-miterlimit="10"/>
<path d="M208.15 434.21C199.1 425.73 180.32 410.43 151.28 401.72C120.16 392.38 93.3798 395.45 80.5098 397.72L87.0998 384.26" stroke="#130F09" stroke-width="5" stroke-miterlimit="10"/>
</g>
<path d="M248.08 242.608V282.928C248.08 286.96 249.072 290.064 251.056 292.24C253.04 294.416 255.952 295.504 259.792 295.504C263.632 295.504 266.576 294.416 268.624 292.24C270.672 290.064 271.696 286.96 271.696 282.928V242.608H288.112V282.832C288.112 288.848 286.832 293.936 284.272 298.096C281.712 302.256 278.256 305.392 273.904 307.504C269.616 309.616 264.816 310.672 259.504 310.672C254.192 310.672 249.424 309.648 245.2 307.6C241.04 305.488 237.744 302.352 235.312 298.192C232.88 293.968 231.664 288.848 231.664 282.832V242.608H248.08ZM332.952 298.096H307.8L303.768 310H286.584L310.968 242.608H329.976L354.36 310H336.984L332.952 298.096ZM328.728 285.424L320.376 260.752L312.12 285.424H328.728ZM363.317 238.96V310H354.581V238.96H363.317ZM378.302 267.184C380.094 264.048 382.718 261.488 386.174 259.504C389.63 257.52 393.566 256.528 397.982 256.528C402.718 256.528 406.974 257.648 410.75 259.888C414.526 262.128 417.502 265.296 419.678 269.392C421.854 273.424 422.942 278.128 422.942 283.504C422.942 288.816 421.854 293.552 419.678 297.712C417.502 301.872 414.494 305.104 410.654 307.408C406.878 309.712 402.654 310.864 397.982 310.864C393.438 310.864 389.438 309.872 385.982 307.888C382.59 305.904 380.03 303.376 378.302 300.304V310H369.566V238.96H378.302V267.184ZM414.014 283.504C414.014 279.536 413.214 276.08 411.614 273.136C410.014 270.192 407.838 267.952 405.086 266.416C402.398 264.88 399.422 264.112 396.158 264.112C392.958 264.112 389.982 264.912 387.23 266.512C384.542 268.048 382.366 270.32 380.702 273.328C379.102 276.272 378.302 279.696 378.302 283.6C378.302 287.568 379.102 291.056 380.702 294.064C382.366 297.008 384.542 299.28 387.23 300.88C389.982 302.416 392.958 303.184 396.158 303.184C399.422 303.184 402.398 302.416 405.086 300.88C407.838 299.28 410.014 297.008 411.614 294.064C413.214 291.056 414.014 287.536 414.014 283.504ZM473.801 281.68C473.801 283.344 473.705 285.104 473.513 286.96H431.465C431.785 292.144 433.545 296.208 436.745 299.152C440.009 302.032 443.945 303.472 448.553 303.472C452.329 303.472 455.465 302.608 457.961 300.88C460.521 299.088 462.313 296.72 463.337 293.776H472.745C471.337 298.832 468.521 302.96 464.297 306.16C460.073 309.296 454.825 310.864 448.553 310.864C443.561 310.864 439.081 309.744 435.113 307.504C431.209 305.264 428.137 302.096 425.897 298C423.657 293.84 422.537 289.04 422.537 283.6C422.537 278.16 423.625 273.392 425.801 269.296C427.977 265.2 431.017 262.064 434.921 259.888C438.889 257.648 443.433 256.528 448.553 256.528C453.545 256.528 457.961 257.616 461.801 259.792C465.641 261.968 468.585 264.976 470.633 268.816C472.745 272.592 473.801 276.88 473.801 281.68ZM464.777 279.856C464.777 276.528 464.041 273.68 462.569 271.312C461.097 268.88 459.081 267.056 456.521 265.84C454.025 264.56 451.241 263.92 448.169 263.92C443.753 263.92 439.977 265.328 436.841 268.144C433.769 270.96 432.009 274.864 431.561 279.856H464.777ZM485.428 265.936C486.964 262.928 489.14 260.592 491.956 258.928C494.836 257.264 498.324 256.432 502.42 256.432V265.456H500.116C490.324 265.456 485.428 270.768 485.428 281.392V310H476.692V257.392H485.428V265.936ZM514.521 264.592V295.6C514.521 298.16 515.065 299.984 516.153 301.072C517.241 302.096 519.129 302.608 521.817 302.608H528.249V310H520.377C515.513 310 511.865 308.88 509.433 306.64C507.001 304.4 505.785 300.72 505.785 295.6V264.592H498.969V257.392H505.785V244.144H514.521V257.392H528.249V264.592H514.521ZM526.929 283.504C526.929 278.128 528.017 273.424 530.193 269.392C532.369 265.296 535.345 262.128 539.121 259.888C542.961 257.648 547.217 256.528 551.889 256.528C556.497 256.528 560.497 257.52 563.889 259.504C567.281 261.488 569.809 263.984 571.473 266.992V257.392H580.305V310H571.473V300.208C569.745 303.28 567.153 305.84 563.697 307.888C560.305 309.872 556.337 310.864 551.793 310.864C547.121 310.864 542.897 309.712 539.121 307.408C535.345 305.104 532.369 301.872 530.193 297.712C528.017 293.552 526.929 288.816 526.929 283.504ZM571.473 283.6C571.473 279.632 570.673 276.176 569.073 273.232C567.473 270.288 565.297 268.048 562.545 266.512C559.857 264.912 556.881 264.112 553.617 264.112C550.353 264.112 547.377 264.88 544.689 266.416C542.001 267.952 539.857 270.192 538.257 273.136C536.657 276.08 535.857 279.536 535.857 283.504C535.857 287.536 536.657 291.056 538.257 294.064C539.857 297.008 542.001 299.28 544.689 300.88C547.377 302.416 550.353 303.184 553.617 303.184C556.881 303.184 559.857 302.416 562.545 300.88C565.297 299.28 567.473 297.008 569.073 294.064C570.673 291.056 571.473 287.568 571.473 283.6Z" fill="#130F09"/>
<path d="M258.064 376.344C252.88 376.344 248.208 375.16 244.048 372.792C239.952 370.36 236.688 366.776 234.256 362.04C231.888 357.24 230.704 351.224 230.704 343.992C230.704 338.68 231.376 333.976 232.72 329.88C234.128 325.72 236.144 322.2 238.768 319.32C241.456 316.376 244.752 314.136 248.656 312.6C252.56 311.064 257.072 310.296 262.192 310.296C266.032 310.296 269.52 310.744 272.656 311.64C275.792 312.536 278.512 313.816 280.816 315.48C283.12 317.144 284.912 319.16 286.192 321.528C287.536 323.832 288.272 326.456 288.4 329.4L275.344 333.432C275.216 330.744 274.512 328.536 273.232 326.808C272.016 325.08 270.384 323.8 268.336 322.968C266.352 322.072 264.112 321.624 261.616 321.624C258.16 321.624 255.184 322.424 252.688 324.024C250.256 325.56 248.4 327.96 247.12 331.224C245.84 334.424 245.2 338.488 245.2 343.416C245.2 347.192 245.552 350.456 246.256 353.208C247.024 355.896 248.144 358.136 249.616 359.928C251.088 361.72 252.848 363.064 254.896 363.96C256.944 364.792 259.312 365.208 262 365.208C264.816 365.208 267.248 364.76 269.296 363.864C271.408 362.904 273.072 361.464 274.288 359.544C275.568 357.56 276.272 355.064 276.4 352.056H264.4V342.072H290.032V353.688V375H280.432L280.624 358.776H278.896C277.872 362.616 276.496 365.848 274.768 368.472C273.04 371.032 270.8 372.984 268.048 374.328C265.36 375.672 262.032 376.344 258.064 376.344ZM304.692 376.344C301.876 376.344 299.38 375.8 297.204 374.712C295.028 373.56 293.332 371.928 292.116 369.816C290.9 367.704 290.292 365.08 290.292 361.944C290.292 359.192 290.804 356.888 291.828 355.032C292.916 353.176 294.484 351.672 296.532 350.52C298.58 349.368 301.108 348.408 304.116 347.64C307.124 346.872 310.548 346.2 314.388 345.624C316.436 345.304 318.1 345.016 319.38 344.76C320.724 344.44 321.716 343.96 322.356 343.32C322.996 342.616 323.316 341.624 323.316 340.344C323.316 338.552 322.676 337.016 321.396 335.736C320.116 334.456 318.1 333.816 315.348 333.816C313.492 333.816 311.764 334.136 310.164 334.776C308.628 335.416 307.284 336.376 306.132 337.656C305.044 338.936 304.244 340.568 303.732 342.552L291.54 338.808C292.308 336.184 293.396 333.912 294.804 331.992C296.276 330.072 298.036 328.472 300.084 327.192C302.132 325.848 304.468 324.856 307.092 324.216C309.716 323.576 312.564 323.256 315.636 323.256C320.564 323.256 324.564 324.056 327.636 325.656C330.772 327.192 333.108 329.624 334.644 332.952C336.18 336.216 336.948 340.44 336.948 345.624V354.264C336.948 356.504 336.98 358.776 337.044 361.08C337.172 363.384 337.3 365.72 337.428 368.088C337.62 370.392 337.812 372.696 338.004 375H325.812C325.556 373.4 325.3 371.576 325.044 369.528C324.852 367.416 324.692 365.304 324.564 363.192H322.836C321.94 365.624 320.66 367.832 318.996 369.816C317.332 371.8 315.284 373.4 312.852 374.616C310.484 375.768 307.764 376.344 304.692 376.344ZM310.548 366.36C311.764 366.36 312.98 366.136 314.196 365.688C315.476 365.24 316.692 364.632 317.844 363.864C319.06 363.032 320.148 362.008 321.108 360.792C322.132 359.576 322.964 358.2 323.604 356.664L323.412 348.6L325.62 349.08C324.468 349.912 323.124 350.584 321.588 351.096C320.052 351.544 318.452 351.896 316.788 352.152C315.188 352.408 313.588 352.696 311.988 353.016C310.388 353.336 308.948 353.752 307.668 354.264C306.452 354.776 305.46 355.48 304.692 356.376C303.988 357.208 303.636 358.392 303.636 359.928C303.636 361.912 304.276 363.48 305.556 364.632C306.836 365.784 308.5 366.36 310.548 366.36ZM340.4 375V342.744V324.6H351.44V339.672H353.264C354.16 335.96 355.344 332.92 356.816 330.552C358.288 328.12 360.048 326.296 362.096 325.08C364.208 323.864 366.672 323.256 369.488 323.256C372.496 323.256 374.992 323.928 376.976 325.272C378.96 326.616 380.496 328.504 381.584 330.936C382.672 333.304 383.376 336.216 383.696 339.672H385.232C386.192 335.896 387.472 332.792 389.072 330.36C390.736 327.928 392.688 326.136 394.928 324.984C397.232 323.832 399.76 323.256 402.512 323.256C405.264 323.256 407.664 323.8 409.712 324.888C411.824 325.976 413.584 327.608 414.992 329.784C416.4 331.896 417.456 334.584 418.16 337.848C418.864 341.048 419.216 344.76 419.216 348.984V375H405.392V350.712C405.392 347.256 405.104 344.376 404.528 342.072C403.952 339.704 403.056 337.944 401.84 336.792C400.624 335.64 399.056 335.064 397.136 335.064C395.024 335.064 393.2 335.8 391.664 337.272C390.128 338.68 388.912 340.632 388.016 343.128C387.12 345.624 386.64 348.472 386.576 351.672V375H373.04V351.096C373.04 347.512 372.72 344.568 372.08 342.264C371.44 339.896 370.512 338.104 369.296 336.888C368.08 335.672 366.544 335.064 364.688 335.064C362.512 335.064 360.656 335.8 359.12 337.272C357.584 338.68 356.4 340.664 355.568 343.224C354.736 345.784 354.288 348.632 354.224 351.768V375H340.4ZM446.028 376.344C441.868 376.344 438.156 375.768 434.892 374.616C431.692 373.464 428.972 371.8 426.732 369.624C424.492 367.448 422.764 364.76 421.548 361.56C420.396 358.36 419.82 354.744 419.82 350.712C419.82 346.744 420.364 343.096 421.452 339.768C422.604 336.376 424.268 333.464 426.444 331.032C428.62 328.536 431.276 326.616 434.412 325.272C437.548 323.928 441.1 323.256 445.068 323.256C448.908 323.256 452.332 323.896 455.34 325.176C458.348 326.392 460.844 328.248 462.828 330.744C464.876 333.24 466.348 336.312 467.244 339.96C468.204 343.544 468.556 347.672 468.3 352.344L428.748 352.728V345.144L460.332 344.856L455.436 348.696C455.884 345.304 455.66 342.52 454.764 340.344C453.868 338.168 452.556 336.568 450.828 335.544C449.164 334.52 447.308 334.008 445.26 334.008C442.828 334.008 440.684 334.648 438.828 335.928C436.972 337.208 435.532 339.096 434.508 341.592C433.484 344.024 432.972 346.968 432.972 350.424C432.972 355.864 434.156 359.864 436.524 362.424C438.956 364.984 442.124 366.264 446.028 366.264C447.82 366.264 449.324 366.04 450.54 365.592C451.82 365.08 452.844 364.44 453.612 363.672C454.444 362.904 455.084 362.04 455.532 361.08C456.044 360.12 456.46 359.16 456.78 358.2L468.78 360.792C468.204 363.16 467.34 365.304 466.188 367.224C465.1 369.08 463.628 370.712 461.772 372.12C459.916 373.464 457.676 374.488 455.052 375.192C452.492 375.96 449.484 376.344 446.028 376.344ZM490.467 376.344C487.075 376.344 484.003 376.024 481.251 375.384C478.499 374.744 476.131 373.816 474.147 372.6C472.163 371.384 470.563 369.944 469.347 368.28C468.131 366.552 467.331 364.632 466.947 362.52L477.507 358.2C477.763 359.608 478.467 360.92 479.619 362.136C480.771 363.352 482.307 364.344 484.227 365.112C486.211 365.816 488.579 366.168 491.331 366.168C494.275 366.168 496.547 365.752 498.147 364.92C499.747 364.024 500.547 362.776 500.547 361.176C500.547 359.96 500.099 359 499.203 358.296C498.307 357.592 496.995 356.984 495.267 356.472C493.539 355.96 491.459 355.48 489.027 355.032C486.659 354.456 484.227 353.848 481.731 353.208C479.299 352.568 477.027 351.672 474.915 350.52C472.867 349.368 471.171 347.864 469.827 346.008C468.547 344.088 467.907 341.656 467.907 338.712C467.907 335.64 468.739 332.952 470.403 330.648C472.067 328.344 474.499 326.552 477.699 325.272C480.899 323.928 484.803 323.256 489.411 323.256C493.571 323.256 497.219 323.832 500.355 324.984C503.491 326.072 506.051 327.672 508.035 329.784C510.083 331.832 511.459 334.296 512.163 337.176L500.931 340.92C500.675 339.384 500.035 338.04 499.011 336.888C498.051 335.736 496.739 334.872 495.075 334.296C493.475 333.72 491.587 333.432 489.411 333.432C486.659 333.432 484.515 333.88 482.979 334.776C481.507 335.672 480.771 336.856 480.771 338.328C480.771 339.544 481.251 340.536 482.211 341.304C483.235 342.072 484.643 342.712 486.435 343.224C488.227 343.672 490.339 344.152 492.771 344.664C495.331 345.176 497.827 345.784 500.259 346.488C502.691 347.128 504.867 347.992 506.787 349.08C508.771 350.168 510.339 351.608 511.491 353.4C512.643 355.192 513.219 357.496 513.219 360.312C513.219 363.64 512.323 366.52 510.531 368.952C508.739 371.32 506.147 373.144 502.755 374.424C499.363 375.704 495.267 376.344 490.467 376.344Z" fill="#130F09"/>
<path d="M271.12 433.096H245.968L239.824 445H222.64L258.928 377.608H277.936L290.416 445H273.04L271.12 433.096ZM269.2 420.616L265.264 395.656L252.4 420.616H269.2ZM313.293 401.128C315.789 397.928 318.637 395.432 321.837 393.64C325.101 391.784 328.493 390.856 332.013 390.856L328.941 408.232H324.429C320.333 408.232 317.101 409.128 314.733 410.92C312.365 412.648 310.797 415.72 310.029 420.136L305.613 445H289.197L298.605 391.432H315.021L313.293 401.128ZM323.156 418.216C324.116 412.648 326.1 407.784 329.108 403.624C332.116 399.464 335.828 396.264 340.244 394.024C344.724 391.784 349.588 390.664 354.836 390.664C361.556 390.664 366.868 392.424 370.772 395.944C374.676 399.464 376.756 404.424 377.012 410.824H359.54C358.836 406.728 356.34 404.68 352.052 404.68C349.044 404.68 346.452 405.864 344.276 408.232C342.1 410.536 340.628 413.864 339.86 418.216C339.604 419.56 339.476 420.968 339.476 422.44C339.476 425.448 340.18 427.752 341.588 429.352C342.996 430.952 344.916 431.752 347.348 431.752C351.572 431.752 354.74 429.704 356.852 425.608H374.42C371.924 431.88 368.084 436.808 362.9 440.392C357.716 443.976 351.796 445.768 345.14 445.768C338.228 445.768 332.724 443.88 328.628 440.104C324.596 436.264 322.58 431.048 322.58 424.456C322.58 422.472 322.772 420.392 323.156 418.216ZM413.537 390.856C418.785 390.856 422.913 392.36 425.921 395.368C428.993 398.376 430.529 402.568 430.529 407.944C430.529 409.736 430.337 411.656 429.953 413.704L424.385 445H408.065L413.249 415.912C413.441 414.824 413.537 413.864 413.537 413.032C413.537 410.344 412.769 408.264 411.233 406.792C409.761 405.32 407.681 404.584 404.993 404.584C401.793 404.584 399.105 405.576 396.929 407.56C394.753 409.544 393.345 412.328 392.705 415.912V415.72L387.521 445H371.105L383.681 373.96H400.097L395.777 398.536C397.889 396.168 400.481 394.312 403.553 392.968C406.625 391.56 409.953 390.856 413.537 390.856ZM445.872 385.864C443.312 385.864 441.264 385.192 439.728 383.848C438.256 382.44 437.52 380.68 437.52 378.568C437.52 375.688 438.64 373.224 440.88 371.176C443.12 369.128 445.84 368.104 449.04 368.104C451.6 368.104 453.616 368.808 455.088 370.216C456.56 371.56 457.296 373.32 457.296 375.496C457.296 378.312 456.176 380.744 453.936 382.792C451.696 384.84 449.008 385.864 445.872 385.864ZM452.976 391.432L443.568 445H427.152L436.56 391.432H452.976ZM473.609 429.64L492.041 391.432H509.609L481.097 445H460.745L451.241 391.432H468.713L473.609 429.64ZM531.687 390.664C538.599 390.664 544.071 392.552 548.103 396.328C552.199 400.04 554.247 405.128 554.247 411.592C554.247 413.704 554.087 415.592 553.767 417.256C553.511 418.728 553.127 420.296 552.615 421.96H515.463C515.399 422.344 515.367 422.952 515.367 423.784C515.367 426.6 516.135 428.744 517.671 430.216C519.207 431.688 521.255 432.424 523.815 432.424C527.911 432.424 531.047 430.696 533.223 427.24H550.695C548.391 432.68 544.647 437.128 539.463 440.584C534.279 444.04 528.455 445.768 521.991 445.768C515.079 445.768 509.543 443.848 505.383 440.008C501.287 436.168 499.239 430.952 499.239 424.36C499.239 422.376 499.431 420.328 499.815 418.216C500.775 412.648 502.759 407.784 505.767 403.624C508.775 399.464 512.519 396.264 516.999 394.024C521.479 391.784 526.375 390.664 531.687 390.664ZM537.639 413.608C537.767 412.712 537.831 412.104 537.831 411.784C537.831 409.224 537.031 407.272 535.431 405.928C533.831 404.52 531.719 403.816 529.095 403.816C526.279 403.816 523.783 404.68 521.607 406.408C519.495 408.072 517.959 410.472 516.999 413.608H537.639ZM574.95 445.768C572.07 445.768 569.702 444.936 567.846 443.272C566.054 441.544 565.158 439.432 565.158 436.936C565.158 434.376 566.054 432.232 567.846 430.504C569.702 428.776 572.07 427.912 574.95 427.912C577.766 427.912 580.07 428.776 581.862 430.504C583.718 432.232 584.646 434.376 584.646 436.936C584.646 439.432 583.718 441.544 581.862 443.272C580.07 444.936 577.766 445.768 574.95 445.768Z" fill="#130F09"/>
<g clip-path="url(#clip1_170_1409)">
<path d="M676.102 201.383L686.496 207.406L675.624 229.912L665.583 224.192L660.552 234.067L649.71 228.323L654.84 217.604L643.926 211.12L649.216 199.763L659.74 205.688L665.126 195.023L676.102 201.383Z" fill="#D0CFB7"/>
<path d="M649.216 199.763L627.921 187.758L615.784 181.039L611.61 191.627L601.105 186.466L606.225 174.571L596.411 168.461L606.34 145.727L617.611 152.907L623.288 140.532L633.723 146.439L634.55 146.938L675.98 172.717L671.047 182.832L681.936 190.016L676.102 201.383L665.126 195.023L659.74 205.688L649.216 199.763Z" fill="#37542C"/>
<path d="M675.623 229.912L675.731 230.263L660.711 234.614L660.551 234.067L665.582 224.192L675.623 229.912Z" fill="#130F09"/>
<path d="M676.931 115.597L665.319 137.421L654.823 131.197L665.786 108.901L676.931 115.597Z" fill="#37542C"/>
<path d="M585.745 47.7037L574.408 41.1198L574.624 40.7482L580.006 29.5908L590.757 35.5576L611.912 48.0914L617.378 37.5444L671.146 69.1872L666.059 79.87L676.802 86.4588L671.428 97.4261L638.894 78.5454L617.431 66.0833L606.57 59.7849L595.148 53.1527L585.745 47.7037Z" fill="#D34E25"/>
<path d="M660.552 234.067L660.712 234.614L644.43 239.349L649.71 228.322L660.552 234.067Z" fill="#130F09"/>
<path d="M671.43 97.4261L665.787 108.901L654.469 102.118L644.271 124.927L622.251 111.871L628.007 101.441L638.599 107.614L644.836 96.4361L632.963 88.9383L638.896 78.5455L671.43 97.4261Z" fill="#37542C"/>
<path d="M665.32 137.421L649.836 142.22L649.673 141.703L654.823 131.197L665.32 137.421Z" fill="#130F09"/>
<path d="M654.578 246.073L644.22 267.05L633.232 261.041L638.191 250.537L616.307 238.819L622.286 226.753L611.309 220.303L616.843 209.461L617.345 209.78L627.235 215.826L633.297 204.813L643.926 211.12L638.637 222.467L649.709 228.323L644.43 239.349L654.578 246.073Z" fill="#37542C"/>
<path d="M665.785 108.901L654.822 131.197L644.27 124.927L654.468 102.118L665.785 108.901Z" fill="#D0CFB7"/>
<path d="M654.84 217.604L649.71 228.323L638.637 222.466L643.926 211.119L654.84 217.604Z" fill="#130F09"/>
<path d="M644.22 267.05L644.254 267.867L631.632 271.277L620.804 263.876L625.089 255.318L611.727 248.063L616.307 238.819L638.191 250.537L633.232 261.041L644.22 267.05Z" fill="#130F09"/>
<path d="M635.869 203.185L623.456 196.521L627.921 187.758L649.216 199.763L643.926 211.12L633.297 204.813L633.138 204.356L635.712 203.472L635.869 203.185Z" fill="#130F09"/>
<path d="M654.823 131.197L649.672 141.703L639.279 136.091L644.27 124.927L654.823 131.197Z" fill="#37542C"/>
<path d="M649.671 141.703L649.834 142.221L634.548 146.938L633.721 146.439L639.279 136.091L649.671 141.703Z" fill="#130F09"/>
<path d="M644.272 124.928L639.281 136.092L633.723 146.439L623.288 140.532L611.601 133.935L579.415 115.74L567.854 109.195L557.876 103.552L563.186 92.5185L595.474 110.161L600.264 99.6411L590.706 93.1632L595.859 82.3058L605.886 88.3956L617.433 66.0837L638.896 78.5458L632.963 88.9386L644.836 96.4365L638.599 107.614L628.007 101.442L622.251 111.871L644.272 124.928Z" fill="#D0CFB7"/>
<path d="M633.138 204.356L633.296 204.813L627.235 215.826L617.345 209.779L633.138 204.356Z" fill="#130F09"/>
<path d="M627.921 187.758L623.457 196.511L616.843 209.461L611.309 220.303L622.277 226.752L616.297 238.818L611.717 248.062L569.019 222.737L573.641 213.798L540.487 194.036L546.344 183.918L513.754 164.359L531.197 130.435L533.249 131.692L541.812 136.901L536.714 147.483L546.887 154.269L552.14 143.2L541.812 136.901L552.581 114.527L553.57 115.011L562.925 120.345L557.781 131.957L589.752 150.303L595.582 138.866L606.341 145.717L596.412 168.451L606.225 174.561L601.116 186.457L611.621 191.618L615.794 181.04L627.931 187.759L627.921 187.758ZM568.45 167.052L573.221 156.531L563.254 150.015L556.859 160.193L568.45 167.052Z" fill="#D34E25"/>
<path d="M623.287 140.532L617.61 152.907L606.34 145.727L611.132 134.755L611.601 133.935L623.287 140.532Z" fill="#D34E25"/>
<path d="M611.726 248.063L597.9 251.782L557.225 226.837L560.631 217.594L528.344 198.224L533.488 188.109L481.029 156.317L502.34 111.647L515.443 106.856L494.039 152.522L513.753 164.359L546.344 183.918L540.486 194.036L573.641 213.798L569.018 222.737L611.726 248.063Z" fill="#130F09"/>
<path d="M611.6 133.935L611.131 134.755L606.339 145.727L595.581 138.866L589.751 150.303L557.78 131.957L562.913 120.344L573.65 126.47L579.414 115.74L611.6 133.935Z" fill="#37542C"/>
<path d="M617.433 66.0835L605.885 88.3955L595.859 82.3056L606.572 59.7851L617.433 66.0835Z" fill="#37542C"/>
<path d="M606.571 59.7853L595.858 82.3058L586.097 76.3814L580.094 87.1995L547.242 67.9677L553.079 56.3506L563.337 61.8996L568.629 52.0294L579.967 58.6939L589.384 64.2145L594.717 54.1172C594.742 54.0692 594.709 53.9958 594.659 53.9912L595.148 53.1631L606.56 59.7943L606.571 59.7853Z" fill="#D0CFB7"/>
<path d="M563.185 92.5184L557.875 103.552L546.237 96.97L552.057 85.8535L541.411 79.1935L547.241 67.9675L580.094 87.1994L586.097 76.3812L595.858 82.3056L590.705 93.163L600.263 99.641L595.473 110.161L563.185 92.5184Z" fill="#37542C"/>
<path d="M594.67 53.9818C594.72 53.9865 594.754 54.0599 594.729 54.1078L589.396 64.2052L579.979 58.6846L580.003 58.6366L580.713 57.2768L580.894 57.3841L594.63 53.9881C594.63 53.9881 594.651 53.97 594.671 53.9719L594.67 53.9818Z" fill="#130F09"/>
<path d="M595.628 25.0357L590.757 35.5579L580.006 29.5912L574.624 40.7486L574.408 41.1202L553.783 29.1481L564.495 7.1799L595.628 25.0357Z" fill="#D0CFB7"/>
<path d="M567.853 109.195L579.414 115.74L573.65 126.47L562.914 120.344L567.853 109.195Z" fill="#D34E25"/>
<path d="M574.41 41.1199L585.746 47.7039L580.703 57.276L579.993 58.6358L579.969 58.6837L568.629 52.0292L563.327 61.8985L553.079 56.3504L547.242 67.9675L537.552 62.4715L553.785 29.1479L574.41 41.1199Z" fill="#37542C"/>
<path d="M573.221 156.53L568.45 167.052L556.859 160.193L563.254 150.014L573.221 156.53Z" fill="#37542C"/>
<path d="M557.876 103.552L567.854 109.195L562.915 120.344L553.561 115.01L552.581 114.527L557.876 103.552Z" fill="#37542C"/>
<path d="M557.876 103.552L552.582 114.527L541.812 136.901L533.25 131.692L533.856 130.684L544.552 108.021L534.037 100.068L538.921 89.5165L528.697 83.5991L534.038 72.3474L524.795 66.7928L552.554 11.1654L564.497 7.17988L553.785 29.1481L537.552 62.4717L547.243 67.9677L541.412 79.1936L552.059 85.8536L546.238 96.9701L557.876 103.552Z" fill="#130F09"/>
<path d="M552.139 143.2L546.887 154.259L536.713 147.483L541.811 136.901L552.139 143.2Z" fill="#37542C"/>
<path d="M531.196 130.435L513.753 164.359L494.039 152.522L515.443 106.856L525.609 113.391L520.06 123.649L531.196 130.435Z" fill="#37542C"/>
<path d="M564.496 7.17986L595.629 25.0356L590.758 35.5579L611.913 48.0917L617.379 37.5447L671.147 69.1875L666.06 79.8704L676.803 86.4591L671.429 97.4264L665.786 108.901L654.823 131.197L649.673 141.703L639.28 136.091L633.723 146.439L623.287 140.532L611.601 133.935L579.415 115.74L567.854 109.195L557.876 103.552L546.238 96.9701L552.058 85.8536L541.412 79.1936L547.242 67.9676L537.552 62.4717L553.784 29.1481L564.496 7.17986Z" stroke="#130F09" stroke-miterlimit="10"/>
<path d="M633.723 146.439L634.55 146.938L675.98 172.717L671.047 182.832L681.935 190.016L676.102 201.383L676.086 201.442" stroke="#130F09" stroke-miterlimit="10"/>
<path d="M541.81 136.901L533.248 131.692L531.196 130.435L520.06 123.649L525.609 113.391L515.443 106.856L494.039 152.522L513.753 164.359L546.343 183.917L540.486 194.036L573.64 213.798L569.018 222.737L611.726 248.063L616.306 238.819L622.285 226.753L611.308 220.303L616.842 209.461L623.455 196.521L627.92 187.758L649.215 199.763L659.739 205.688L665.125 195.023L676.101 201.383L686.495 207.407L675.623 229.912L665.582 224.193L660.551 234.067L649.708 228.323L638.635 222.467L643.925 211.12L649.215 199.763L649.591 198.964" stroke="#130F09" stroke-miterlimit="10"/>
<path d="M541.811 136.901L536.713 147.483L546.887 154.259L552.139 143.2L541.811 136.901Z" stroke="#130F09" stroke-miterlimit="10"/>
<path d="M563.522 91.8165L563.185 92.5182L557.875 103.552L552.58 114.527L541.811 136.901" stroke="#130F09" stroke-miterlimit="10"/>
<path d="M616.843 209.461L617.345 209.78L627.235 215.826L633.297 204.813L643.926 211.12L654.84 217.604L649.709 228.323L644.43 239.349L654.578 246.073L644.22 267.05L633.232 261.041L638.191 250.537L616.307 238.819" stroke="#130F09" stroke-miterlimit="10"/>
<path d="M617.58 65.7762L617.431 66.0837L605.884 88.3956L595.857 82.3058L586.096 76.3814L580.093 87.1995L547.241 67.9677L553.078 56.3506L563.336 61.8996L568.627 52.0294L579.966 58.6939L589.383 64.2145L594.716 54.1172C594.741 54.0692 594.708 53.9958 594.658 53.9912C594.638 53.9893 594.636 54.0092 594.616 54.0073L580.88 57.4034" stroke="#130F09" stroke-miterlimit="10"/>
<path d="M585.782 47.6371L585.746 47.704L580.703 57.2761L579.993 58.6359" stroke="#130F09" stroke-miterlimit="10"/>
<path d="M553.783 29.1479L574.408 41.12L585.745 47.7039L595.148 53.153L606.57 59.7851L617.431 66.0835L638.894 78.5457L671.428 97.4263L671.474 97.4708" stroke="#130F09" stroke-miterlimit="10"/>
<path d="M638.896 78.5455L632.963 88.9383L644.836 96.4361L638.599 107.614L628.007 101.441L622.251 111.871L644.271 124.927L654.824 131.197L665.32 137.421L676.932 115.597L665.787 108.901L654.469 102.118L644.271 124.927L639.28 136.091" stroke="#130F09" stroke-miterlimit="10"/>
<path d="M606.571 59.785L595.858 82.3055L590.705 93.163L600.264 99.6409L595.474 110.161L563.186 92.5183" stroke="#130F09" stroke-miterlimit="10"/>
<path d="M553.56 115.01L562.914 120.344L573.651 126.47L579.415 115.74" stroke="#130F09" stroke-miterlimit="10"/>
<path d="M567.854 109.195L562.915 120.344L557.782 131.956L589.753 150.302L595.583 138.865L606.341 145.727L617.611 152.907L623.288 140.532" stroke="#130F09" stroke-miterlimit="10"/>
<path d="M611.132 134.755L606.34 145.727L596.41 168.461L606.224 174.571L601.105 186.466L611.61 191.626L615.784 181.039L627.921 187.758" stroke="#130F09" stroke-miterlimit="10"/>
<path d="M563.254 150.014L573.221 156.53L568.45 167.052L556.859 160.193L563.254 150.014Z" stroke="#130F09" stroke-miterlimit="10"/>
<path d="M531.197 130.435L513.753 164.359" stroke="#130F09" stroke-miterlimit="10"/>
<path d="M590.758 35.5579L580.006 29.5911L574.624 40.7485" stroke="#130F09" stroke-miterlimit="10"/>
<path d="M564.497 7.17988L552.554 11.1654L524.795 66.7928L534.038 72.3474L528.697 83.5991L538.921 89.5165L534.037 100.068L544.552 108.021L533.856 130.684" stroke="#130F09" stroke-miterlimit="10"/>
<path d="M515.443 106.856L502.34 111.647L481.029 156.317L533.488 188.109L528.344 198.224L560.631 217.594L557.225 226.837L597.9 251.782L611.726 248.063L625.089 255.318L620.803 263.876L631.632 271.277L644.254 267.867" stroke="#130F09" stroke-miterlimit="10"/>
<path d="M635.711 203.472L633.138 204.356L617.344 209.78" stroke="#130F09" stroke-miterlimit="10"/>
<path d="M623.455 196.521L635.869 203.185L636.528 203.548" stroke="#130F09" stroke-miterlimit="10"/>
<path d="M634.549 146.938L649.834 142.221L665.318 137.421" stroke="#130F09" stroke-miterlimit="10"/>
<path d="M675.793 230.25L675.731 230.264L660.711 234.614L644.43 239.349" stroke="#130F09" stroke-miterlimit="10"/>
</g>
<g clip-path="url(#clip2_170_1409)">
<path d="M159.945 462.043L186.366 547.245L172.101 556.107L145.085 471.894L135.352 473.88L125.635 442.761L116.65 444.321L113.376 433.833L103.245 435.878L100.125 425.828L80.5742 430.218L77.2592 419.512L38.6388 428.149L38.4865 427.941L50.2586 419.484L90.6687 409.653L94.0297 420.258L113.957 416.012L116.616 425.905L127.816 423.591L130.874 434.378L139.978 433.043L149.763 463.48L159.945 462.043Z" fill="#130F09"/>
<path d="M40.6787 434.412L38.6381 428.149L77.2585 419.512L80.5735 430.218L100.124 425.828L103.244 435.878L113.376 433.833L116.649 444.321L125.634 442.761L135.351 473.88L145.084 471.894L172.101 556.107L162.133 558.915L158.258 547.9L149.152 550.021L148.541 548.291L145.496 539.681L136.184 541.843L139.298 552.561L129.839 555.001L133.072 565.437L133.076 565.472L113.16 570.134L106.355 548.779L102.794 549.606L87.0089 553.275L93.727 574.443L74.111 579.028L70.828 568.29L60.8008 570.624L60.5038 569.483L58.0116 560.021L47.8423 562.619L51.5146 573.27L41.8066 575.296L44.7771 585.826L44.7968 585.887L34.9348 588.198L8.99655 503.159L19.1922 500.836L22.4973 511.732L31.8295 509.715L35.0069 520.149L54.9421 515.694L51.6959 505.051L61.5694 502.787L52.0013 471.181L42.1077 473.308L38.8431 462.617L18.6104 467.17L17.6242 463.701L15.4705 456.106L25.2381 453.901L24.265 450.716L22.1613 443.791L42.2653 439.278L40.6787 434.412ZM119.731 489.363L110.09 458.015L100.271 460.127L96.8034 449.644L77.4746 454.243L80.8988 464.633L71.0392 466.749L74.3588 477.066L81.1878 498.3L90.7342 496.116L90.7592 496.232L93.9985 506.73L113.445 502.266L109.995 491.83L119.731 489.363Z" fill="#D34E25"/>
<path d="M145.497 539.681L148.542 548.291L147.928 548.51L145.112 549.321L147.268 557.16L133.351 565.348L133.073 565.437L129.84 555.001L139.299 552.561L136.185 541.843L145.497 539.681Z" fill="#130F09"/>
<path d="M110.089 458.015L119.73 489.363L109.995 491.829L113.444 502.266L93.9979 506.73L90.7586 496.232L90.7336 496.116L100.348 493.918L93.6652 472.677L74.3581 477.065L71.0385 466.749L80.8982 464.633L77.474 454.243L96.8028 449.644L100.271 460.127L110.089 458.015Z" fill="#D0CFB7"/>
<path d="M102.866 549.919L107.828 565.834L93.7273 574.443L87.0092 553.275L102.794 549.606L102.866 549.919Z" fill="#130F09"/>
<path d="M93.6669 472.677L100.35 493.918L90.7352 496.116L81.1888 498.299L74.3598 477.065L93.6669 472.677Z" fill="#37542C"/>
<path d="M52.0013 471.181L61.5695 502.787L51.696 505.05L54.9422 515.694L35.007 520.149L31.8296 509.714L42.0758 507.485L35.467 486.146L16.0777 490.549L16.0237 490.568L12.817 480.192L13.0272 480.131L22.0416 477.851L18.6105 467.17L38.8432 462.617L42.1078 473.307L52.0013 471.181Z" fill="#D0CFB7"/>
<path d="M60.5043 569.483L60.0147 569.613L56.697 570.869L59.0748 577.817L45.2805 585.687L44.7777 585.826L41.8072 575.295L51.5152 573.27L47.8429 562.619L58.0122 560.02L60.5043 569.483Z" fill="#130F09"/>
<path d="M40.6782 434.412L42.2648 439.278L22.1608 443.791L34.8779 435.592L40.6782 434.412Z" fill="#130F09"/>
<path d="M35.4672 486.146L42.0761 507.485L31.8298 509.714L22.4975 511.732L19.1925 500.836L18.1424 497.429L16.0239 490.568L16.0779 490.549L35.4672 486.146Z" fill="#37542C"/>
<path d="M24.2656 450.716L25.2386 453.901L15.4711 456.106L23.825 450.849L24.2656 450.716Z" fill="#130F09"/>
<path d="M18.611 467.17L22.0421 477.851L13.0277 480.13L12.8174 480.192L9.43733 469.241L18.611 467.17Z" fill="#D34E25"/>
<path d="M17.6235 463.701L18.6098 467.17L9.43613 469.241L17.2363 463.807L17.6235 463.701Z" fill="#130F09"/>
<path d="M18.1417 497.429L19.1917 500.836L8.99612 503.159L17.3421 497.673L18.1417 497.429Z" fill="#130F09"/>
<path d="M38.6381 428.149L77.2585 419.512L80.5735 430.218L100.124 425.828L103.244 435.878L113.376 433.833L116.649 444.321L125.634 442.761L135.351 473.88L145.084 471.894L172.101 556.107L162.133 558.915L158.258 547.9L149.152 550.021L148.541 548.291L145.496 539.681L136.184 541.843L139.298 552.561L129.839 555.001L133.072 565.437L133.083 565.471L113.16 570.134L106.355 548.779L102.794 549.606L87.0089 553.275L93.727 574.443L74.111 579.028L70.828 568.29L60.8008 570.624L60.5038 569.483L58.0116 560.021L47.8423 562.619L51.5146 573.27L41.8066 575.296L44.7771 585.826L44.7968 585.887L34.9348 588.198L8.99655 503.159L19.1922 500.836L18.1421 497.429L16.0236 490.568L12.8169 480.192L9.43679 469.242L18.6104 467.17L17.6242 463.701L15.4705 456.106L25.2381 453.901L24.265 450.716L22.1613 443.791L42.2653 439.278L40.6787 434.412L38.6381 428.149Z" stroke="#130F09" stroke-width="2" stroke-miterlimit="10"/>
<path d="M13.0279 480.13L22.0423 477.851L18.6111 467.17L38.8438 462.617L42.1084 473.307L52.002 471.181L61.5701 502.787L51.6966 505.05L54.9428 515.694L35.0076 520.149L31.8302 509.714L22.498 511.732L19.1929 500.836" stroke="#130F09" stroke-width="2" stroke-miterlimit="10"/>
<path d="M16.0773 490.549L35.4666 486.146L42.0755 507.485L31.8292 509.714" stroke="#130F09" stroke-width="2" stroke-miterlimit="10"/>
<path d="M74.3581 477.065L93.6652 472.677L100.348 493.918L90.7336 496.116L81.1871 498.299L74.3581 477.065ZM74.3581 477.065L71.0385 466.749L80.8982 464.633L77.474 454.243L96.8028 449.644L100.271 460.127L110.089 458.015L119.73 489.363L109.995 491.829L113.444 502.266L93.9979 506.73L90.7586 496.232" stroke="#130F09" stroke-width="2" stroke-miterlimit="10"/>
<path d="M38.1397 428.19L38.4855 427.941L50.2577 419.484L90.6677 409.653L94.0288 420.257L113.956 416.012L116.615 425.904L127.815 423.591L130.873 434.377L139.977 433.043L149.762 463.48L159.944 462.043L186.365 547.245L172.1 556.107" stroke="#130F09" stroke-width="2"/>
<path d="M133.351 565.348L147.268 557.16L145.112 549.321L147.928 548.51" stroke="#130F09" stroke-width="2"/>
<path d="M45.2808 585.688L59.0751 577.817L56.6973 570.869L60.015 569.614" stroke="#130F09" stroke-width="2" stroke-miterlimit="10"/>
<path d="M93.7274 574.443L107.828 565.833L102.866 549.919" stroke="#130F09" stroke-width="2" stroke-miterlimit="10"/>
<path d="M8.99596 503.159L17.342 497.673" stroke="#130F09" stroke-width="2" stroke-miterlimit="10"/>
<path d="M9.43736 469.242L17.2375 463.808" stroke="#130F09" stroke-width="2" stroke-miterlimit="10"/>
<path d="M15.4704 456.105L23.8242 450.848" stroke="#130F09" stroke-width="2" stroke-miterlimit="10"/>
<path d="M22.1608 443.791L34.8779 435.592L40.6782 434.412L40.7059 434.41" stroke="#130F09" stroke-width="2" stroke-miterlimit="10"/>
</g>
<defs>
<clipPath id="clip0_170_1409">
<rect width="161" height="243" fill="white" transform="translate(55 204)"/>
</clipPath>
<clipPath id="clip1_170_1409">
<rect width="210.59" height="257.93" fill="white" transform="translate(495.012) rotate(5.34154)"/>
</clipPath>
<clipPath id="clip2_170_1409">
<rect width="174" height="174" fill="white" transform="translate(0 417.52) rotate(-5.44723)"/>
</clipPath>
</defs>
</svg>
