<svg width="25" height="27" viewBox="0 0 25 27" fill="none" xmlns="http://www.w3.org/2000/svg">
<g clip-path="url(#clip0_175_143)">
<path d="M8.3497 20.7484C8.3497 20.8528 8.23843 20.9364 8.09814 20.9364C7.9385 20.952 7.82724 20.8685 7.82724 20.7484C7.82724 20.644 7.9385 20.5604 8.07879 20.5604C8.22392 20.5448 8.3497 20.6283 8.3497 20.7484ZM6.84522 20.5134C6.81136 20.6179 6.90811 20.738 7.05324 20.7693C7.17901 20.8215 7.32414 20.7693 7.35316 20.6649C7.38219 20.5604 7.29027 20.4404 7.14515 20.3934C7.01937 20.3568 6.87908 20.409 6.84522 20.5134ZM8.98341 20.4247C8.84312 20.4612 8.74637 20.5604 8.76089 20.6805C8.7754 20.7849 8.90117 20.8528 9.0463 20.8163C9.18659 20.7797 9.28334 20.6805 9.26883 20.5761C9.25431 20.4769 9.1237 20.409 8.98341 20.4247ZM12.1665 0.41748C5.45685 0.41748 0.324219 5.91529 0.324219 13.1569C0.324219 18.9471 3.70082 23.9019 8.52385 25.6458C9.14305 25.7659 9.36074 25.3534 9.36074 25.014C9.36074 24.6903 9.34623 22.9047 9.34623 21.8083C9.34623 21.8083 5.95995 22.5914 5.24883 20.2524C5.24883 20.2524 4.69735 18.7331 3.904 18.3415C3.904 18.3415 2.7962 17.5218 3.9814 17.5374C3.9814 17.5374 5.18595 17.6418 5.84869 18.8845C6.90811 20.8998 8.68349 20.3203 9.37525 19.9757C9.48652 19.1403 9.80096 18.5608 10.1493 18.2162C7.44508 17.8925 4.7167 17.4696 4.7167 12.4469C4.7167 11.0111 5.08436 10.2906 5.85836 9.37165C5.73259 9.03228 5.3214 7.63302 5.98414 5.82653C6.99518 5.48716 9.32204 7.23622 9.32204 7.23622C10.2895 6.94384 11.3296 6.79243 12.36 6.79243C13.3904 6.79243 14.4305 6.94384 15.398 7.23622C15.398 7.23622 17.7248 5.48194 18.7359 5.82653C19.3986 7.63824 18.9874 9.03228 18.8617 9.37165C19.6357 10.2958 20.1098 11.0163 20.1098 12.4469C20.1098 17.4852 17.2604 17.8872 14.5563 18.2162C15.0013 18.6286 15.3786 19.4118 15.3786 20.6388C15.3786 22.3983 15.3641 24.5755 15.3641 25.0036C15.3641 25.343 15.5867 25.7554 16.201 25.6353C21.0386 23.9019 24.3184 18.9471 24.3184 13.1569C24.3184 5.91529 18.8762 0.41748 12.1665 0.41748ZM5.02631 18.425C4.96342 18.4772 4.97793 18.5973 5.06017 18.6965C5.13757 18.78 5.24883 18.8166 5.31172 18.7487C5.37461 18.6965 5.3601 18.5764 5.27786 18.4772C5.20046 18.3937 5.08919 18.3571 5.02631 18.425ZM4.50385 18.0021C4.46999 18.07 4.51836 18.1535 4.61512 18.2057C4.69252 18.2579 4.78927 18.2423 4.82313 18.1692C4.85699 18.1013 4.80862 18.0178 4.71187 17.9656C4.61512 17.9342 4.53771 17.9499 4.50385 18.0021ZM6.07121 19.8608C5.99381 19.9287 6.02284 20.0853 6.1341 20.1845C6.24537 20.3046 6.38565 20.3203 6.44854 20.2367C6.51143 20.1689 6.48241 20.0122 6.38565 19.913C6.27923 19.7929 6.1341 19.7773 6.07121 19.8608ZM5.51974 19.0933C5.44233 19.1455 5.44233 19.2813 5.51974 19.4014C5.59714 19.5214 5.72775 19.5737 5.79064 19.5214C5.86804 19.4536 5.86804 19.3178 5.79064 19.1977C5.72291 19.0776 5.59714 19.0254 5.51974 19.0933Z" fill="#130F09"/>
</g>
<defs>
<clipPath id="clip0_175_143">
<rect width="23.9942" height="26.732" fill="white" transform="translate(0.324219)"/>
</clipPath>
</defs>
</svg>
