<svg width="25" height="27" viewBox="0 0 25 27" fill="none" xmlns="http://www.w3.org/2000/svg">
<g clip-path="url(#clip0_175_145)">
<path d="M3.49394 1.81709C2.43934 2.49061 0.359283 5.05416 0.339844 5.72768V6.83978C0.339844 8.25469 1.56941 9.49209 2.68719 9.49209C4.02853 9.49209 5.14146 8.29646 5.14146 6.88154C5.14146 8.29646 6.22037 9.49209 7.56171 9.49209C8.90305 9.49209 9.94308 8.29646 9.94308 6.88154C9.94308 8.29646 11.09 9.49209 12.4314 9.49209H12.4557C13.797 9.49209 14.9439 8.29646 14.9439 6.88154C14.9439 8.29646 15.9888 9.49209 17.3253 9.49209C18.6618 9.49209 19.7456 8.29646 19.7456 6.88154C19.7456 8.29646 20.8633 9.49209 22.1998 9.49209C23.3176 9.49209 24.5472 8.24947 24.5472 6.83978V5.72768C24.5277 5.05416 22.4477 2.48539 21.3931 1.81187C18.1078 1.69178 15.8333 1.6709 12.4411 1.6709C9.04885 1.6709 4.42705 1.72833 3.49394 1.81709ZM9.92364 8.83423C8.85445 10.8391 6.13775 10.8548 5.06856 8.84989C4.42705 10.056 2.96907 10.5259 2.347 10.2961C2.15746 12.395 1.68119 22.6753 3.20721 24.3513C7.09515 25.3276 17.8891 25.2963 21.6652 24.3513C23.2058 22.6649 22.7004 12.2384 22.5303 10.2961C21.9034 10.5259 20.4454 10.056 19.8087 8.84989C18.7396 10.86 16.0229 10.8391 14.9537 8.83945C14.6086 9.49209 13.831 10.3483 12.4362 10.3483C11.9286 10.3664 11.426 10.2354 10.9824 9.96956C10.5389 9.7037 10.1711 9.313 9.91878 8.83945L9.92364 8.83423ZM7.9019 11.6432C8.70379 11.6432 9.41334 11.6432 10.293 12.677C11.7182 12.5216 13.1543 12.5216 14.5795 12.677C15.464 11.6432 16.1784 11.6432 16.9754 11.6432C19.5171 11.6432 20.1441 15.6895 21.0529 19.1876C21.8937 22.4352 20.7856 22.5135 19.4005 22.5135C17.3496 22.4299 16.2173 20.8323 16.2173 19.2346C14.3073 19.5688 11.265 19.6941 8.65519 19.2346C8.65519 20.8323 7.52283 22.4299 5.47194 22.5135C4.09171 22.5083 2.98365 22.4299 3.82442 19.1876C4.73322 15.6895 5.36016 11.6432 7.9019 11.6432ZM12.4411 14.1389C12.4411 14.1389 10.2833 16.2691 9.89448 17.0209L11.3039 16.9582V18.2792C11.3039 18.3627 12.339 18.2896 12.4362 18.2896C13.0048 18.3157 13.5686 18.3418 13.5686 18.2792V16.9582L14.978 17.0209C14.5892 16.2638 12.4314 14.1389 12.4314 14.1389H12.4411Z" fill="#130F09"/>
</g>
<defs>
<clipPath id="clip0_175_145">
<rect width="24.8829" height="26.732" fill="white"/>
</clipPath>
</defs>
</svg>
