<svg width="33" height="27" viewBox="0 0 33 27" fill="none" xmlns="http://www.w3.org/2000/svg">
<path d="M29.4005 13.9769C32.2249 11.027 32.2249 6.24969 29.4005 3.29978C26.9011 0.689236 22.9621 0.349865 20.0878 2.49573L20.0078 2.55316C19.288 3.09094 19.123 4.13515 19.6379 4.88177C20.1528 5.62839 21.1525 5.8059 21.8674 5.26813L21.9473 5.2107C23.552 4.01507 25.7464 4.20303 27.1361 5.65971C28.7107 7.30435 28.7107 9.96711 27.1361 11.6118L21.5274 17.4803C19.9528 19.1249 17.4034 19.1249 15.8288 17.4803C14.4342 16.0236 14.2542 13.7315 15.3989 12.0608L15.4539 11.9772C15.9688 11.2254 15.7988 10.1812 15.084 9.64862C14.3692 9.11607 13.3644 9.28837 12.8545 10.035L12.7996 10.1185C10.7401 13.1154 11.065 17.2296 13.5644 19.8402C16.3887 22.7901 20.9626 22.7901 23.7869 19.8402L29.4005 13.9769ZM3.42683 12.7552C0.602515 15.7051 0.602515 20.4824 3.42683 23.4323C5.92623 26.0428 9.86527 26.3822 12.7396 24.2363L12.8196 24.1789C13.5394 23.6411 13.7043 22.5969 13.1895 21.8503C12.6746 21.1037 11.6748 20.9262 10.96 21.4639L10.88 21.5214C9.27542 22.717 7.08095 22.529 5.69128 21.0724C4.11666 19.4225 4.11666 16.7597 5.69128 15.1151L11.2999 9.25182C12.8745 7.60718 15.4239 7.60718 16.9985 9.25182C18.3932 10.7085 18.5732 13.0006 17.4284 14.6765L17.3735 14.7601C16.8586 15.5119 17.0285 16.5561 17.7434 17.0887C18.4582 17.6212 19.4629 17.4489 19.9728 16.7023L20.0278 16.6188C22.0873 13.6166 21.7624 9.50243 19.263 6.89189C16.4387 3.94197 11.8648 3.94197 9.04047 6.89189L3.42683 12.7552Z" fill="#130F09"/>
</svg>
