<svg width="98" height="26" viewBox="0 0 98 26" fill="none" xmlns="http://www.w3.org/2000/svg">
<path d="M6.2394 0V15.2514C6.2394 16.7765 6.61644 17.9507 7.37052 18.7737C8.1246 19.5968 9.23139 20.0084 10.6909 20.0084C12.1504 20.0084 13.2694 19.5968 14.0478 18.7737C14.8262 17.9507 15.2154 16.7765 15.2154 15.2514V0H21.4548V15.2151C21.4548 17.4907 20.9683 19.4153 19.9953 20.9888C19.0223 22.5624 17.7087 23.7486 16.0546 24.5475C14.4248 25.3464 12.6004 25.7458 10.5814 25.7458C8.56245 25.7458 6.75023 25.3585 5.14477 24.5838C3.56363 23.7849 2.31089 22.5987 1.38653 21.0251C0.462178 19.4274 0 17.4907 0 15.2151V0H6.2394Z" fill="#D0CFB7"/>
<path d="M35.2135 20.9888H25.6537L24.1212 25.4916H17.5899L26.8578 0H34.0824L43.3503 25.4916H36.746L35.2135 20.9888ZM33.608 16.1955L30.4336 6.86313L27.2957 16.1955H33.608Z" fill="#D0CFB7"/>
<path d="M49.5278 26C47.5575 26 45.7817 25.5521 44.2006 24.6564C42.6438 23.7365 41.4032 22.3808 40.4788 20.5894C39.5788 18.7737 39.1288 16.4981 39.1288 13.7626C39.1288 11.7533 39.3842 9.97393 39.895 8.42458C40.4302 6.85102 41.1964 5.51955 42.1938 4.43017C43.2154 3.31657 44.4682 2.46927 45.952 1.88827C47.4358 1.30726 49.1508 1.01676 51.0968 1.01676C52.5563 1.01676 53.882 1.18622 55.0739 1.52514C56.2659 1.86406 57.2997 2.34823 58.1754 2.97765C59.0511 3.60708 59.7322 4.36965 60.2187 5.26536C60.7295 6.13687 61.0093 7.12942 61.0579 8.24302L56.0956 9.76816C56.0469 8.7514 55.7794 7.9162 55.2929 7.26257C54.8307 6.60894 54.2104 6.12477 53.432 5.81005C52.6779 5.47113 51.8265 5.30167 50.8778 5.30167C49.5643 5.30167 48.4332 5.60428 47.4845 6.2095C46.5601 6.7905 45.8547 7.69832 45.3682 8.93296C44.8817 10.1434 44.6384 11.6806 44.6384 13.5447C44.6384 14.973 44.7722 16.2076 45.0398 17.2486C45.3317 18.2654 45.7574 19.1127 46.3169 19.7905C46.8764 20.4683 47.5453 20.9767 48.3237 21.3156C49.1021 21.6304 50.0021 21.7877 51.0238 21.7877C52.0941 21.7877 53.0185 21.6182 53.7969 21.2793C54.5996 20.9162 55.232 20.3715 55.6942 19.6453C56.1807 18.8948 56.4483 17.9507 56.4969 16.8129H51.936V13.0363H61.6782V25.4916H58.0294L58.1024 19.3547H57.4456C57.0564 20.8073 56.5334 22.0298 55.8767 23.0223C55.2199 23.9907 54.3685 24.7291 53.3225 25.2374C52.3009 25.7458 51.036 26 49.5278 26Z" fill="#D0CFB7"/>
<path d="M77.503 20.9888H67.9433L65.608 25.4916H59.0767L72.8691 0H80.0937L84.8371 25.4916H78.2328L77.503 20.9888ZM76.7733 16.2682L75.2773 6.82682L70.3879 16.2682H76.7733Z" fill="#D0CFB7"/>
<path d="M94.3147 25.7821C93.2201 25.7821 92.3201 25.4674 91.6147 24.838C90.9335 24.1844 90.593 23.3855 90.593 22.4413C90.593 21.473 90.9335 20.662 91.6147 20.0084C92.3201 19.3547 93.2201 19.0279 94.3147 19.0279C95.3851 19.0279 96.2608 19.3547 96.9419 20.0084C97.6473 20.662 98 21.473 98 22.4413C98 23.3855 97.6473 24.1844 96.9419 24.838C96.2608 25.4674 95.3851 25.7821 94.3147 25.7821Z" fill="#D0CFB7"/>
</svg>
