<svg width="23" height="27" viewBox="0 0 23 27" fill="none" xmlns="http://www.w3.org/2000/svg">
<g clip-path="url(#clip0_175_147)">
<path d="M8.97206 16.1385C9.89446 16.5406 10.3259 17.6474 9.94405 18.6133C9.5622 19.5792 8.50591 20.0335 7.58351 19.6262L6.17016 19.0101C6.41812 19.5636 6.85452 20.023 7.42978 20.2736C8.67948 20.8218 10.1127 20.2005 10.6334 18.89C10.8863 18.2583 10.8863 17.5587 10.6383 16.9217C10.3854 16.2899 9.91926 15.7939 9.31424 15.5277C8.71419 15.2666 8.07446 15.2771 7.50912 15.5016L8.97206 16.1385ZM22.9766 5.01239C22.9766 3.16935 21.5533 1.6709 19.8028 1.6709H3.9336C2.18303 1.6709 0.759766 3.16935 0.759766 5.01239V12.5673L6.5421 15.0787C7.13719 14.6505 7.84139 14.4469 8.56046 14.4887L11.3078 10.3014V10.2439C11.3078 7.72736 13.2567 5.67547 15.652 5.67547C18.0472 5.67547 19.9962 7.72736 19.9962 10.2439C19.9962 12.8127 17.9679 14.875 15.5528 14.8124L11.6351 17.7518C11.7145 19.762 10.192 21.344 8.37697 21.344C6.79997 21.344 5.47589 20.1588 5.17834 18.5924L0.759766 16.6659V21.7199C0.759766 23.5629 2.18303 25.0614 3.9336 25.0614H19.8028C21.5533 25.0614 22.9766 23.5629 22.9766 21.7199V5.01239ZM12.7559 10.2439C12.7559 11.0526 13.061 11.8282 13.6041 12.4C14.1473 12.9718 14.8839 13.293 15.652 13.293C16.4201 13.293 17.1567 12.9718 17.6999 12.4C18.243 11.8282 18.5481 11.0526 18.5481 10.2439C18.5481 9.43525 18.243 8.65969 17.6999 8.08787C17.1567 7.51605 16.4201 7.19481 15.652 7.19481C14.8839 7.19481 14.1473 7.51605 13.6041 8.08787C13.061 8.65969 12.7559 9.43525 12.7559 10.2439ZM13.4799 10.2387C13.4799 9.63081 13.7093 9.04782 14.1175 8.61797C14.5258 8.18813 15.0796 7.94665 15.657 7.94665C16.2343 7.94665 16.7881 8.18813 17.1964 8.61797C17.6046 9.04782 17.834 9.63081 17.834 10.2387C17.834 10.8466 17.6046 11.4296 17.1964 11.8594C16.7881 12.2893 16.2343 12.5308 15.657 12.5308C15.0796 12.5308 14.5258 12.2893 14.1175 11.8594C13.7093 11.4296 13.4799 10.8466 13.4799 10.2387Z" fill="#130F09"/>
</g>
<defs>
<clipPath id="clip0_175_147">
<rect width="22.2168" height="26.732" fill="white" transform="translate(0.759766)"/>
</clipPath>
</defs>
</svg>
